<?xml version="1.0" encoding="UTF-8" standalone="no"?>
<!-- Created with Inkscape (http://www.inkscape.org/) -->

<svg
   xmlns:dc="http://purl.org/dc/elements/1.1/"
   xmlns:cc="http://creativecommons.org/ns#"
   xmlns:rdf="http://www.w3.org/1999/02/22-rdf-syntax-ns#"
   xmlns:svg="http://www.w3.org/2000/svg"
   xmlns="http://www.w3.org/2000/svg"
   xmlns:sodipodi="http://sodipodi.sourceforge.net/DTD/sodipodi-0.dtd"
   xmlns:inkscape="http://www.inkscape.org/namespaces/inkscape"
   width="100mm"
   height="20mm"
   viewBox="0 0 100 20"
   version="1.1"
   id="svg5441"
   inkscape:version="0.92.3 (2405546, 2018-03-11)"
   sodipodi:docname="logo-geel.svg">
  <defs
     id="defs5435">
    <filter
       inkscape:collect="always"
       style="color-interpolation-filters:sRGB"
       id="filter897"
       x="-0.015538555"
       width="1.0310771"
       y="-0.087707547"
       height="1.1754151">
      <feGaussianBlur
         inkscape:collect="always"
         stdDeviation="0.36433532"
         id="feGaussianBlur899" />
    </filter>
  </defs>
  <sodipodi:namedview
     id="base"
     pagecolor="#ffffff"
     bordercolor="#666666"
     borderopacity="1.0"
     inkscape:pageopacity="0.0"
     inkscape:pageshadow="2"
     inkscape:zoom="3.959798"
     inkscape:cx="198.36713"
     inkscape:cy="40.400982"
     inkscape:document-units="mm"
     inkscape:current-layer="layer1"
     showgrid="false"
     inkscape:window-width="2560"
     inkscape:window-height="1387"
     inkscape:window-x="-8"
     inkscape:window-y="-8"
     inkscape:window-maximized="1" />
  <metadata
     id="metadata5438">
    <rdf:RDF>
      <cc:Work
         rdf:about="">
        <dc:format>image/svg+xml</dc:format>
        <dc:type
           rdf:resource="http://purl.org/dc/dcmitype/StillImage" />
        <dc:title />
      </cc:Work>
    </rdf:RDF>
  </metadata>
  <g
     inkscape:label="Laag 1"
     inkscape:groupmode="layer"
     id="layer1"
     transform="translate(0,-277)">
    <g
       transform="matrix(1.6548328,0,0,1.6548328,-22.450662,42.227615)"
       id="g855"
       style="opacity:0.647;filter:url(#filter897)">
      <circle
         style="opacity:1;fill:#383100;fill-opacity:1;fill-rule:nonzero;stroke:none;stroke-width:0.1544832;stroke-linecap:round;stroke-linejoin:miter;stroke-miterlimit:4;stroke-dasharray:none;stroke-dashoffset:0;stroke-opacity:1;paint-order:stroke fill markers"
         id="circle827"
         cx="69.016518"
         cy="147.97052"
         r="2.1430297" />
      <path
         inkscape:connector-curvature="0"
         id="path829"
         style="font-style:normal;font-variant:normal;font-weight:normal;font-stretch:normal;font-size:medium;line-height:1.25;font-family:Montserrat;-inkscape-font-specification:Montserrat;letter-spacing:0px;word-spacing:0px;fill:#eec33b;fill-opacity:1;stroke:#383100;stroke-width:0.60000002;stroke-miterlimit:4;stroke-dasharray:none;stroke-opacity:1;paint-order:stroke fill markers"
         d="m 59.72356,150.45364 q -0.211666,0.1905 -0.529166,0.29633 -0.306917,0.0952 -0.645584,0.0952 -0.783166,0 -1.2065,-0.42333 -0.423333,-0.42333 -0.423333,-1.19592 v -3.3655 h -0.994833 v -0.63499 h 0.994833 v -1.21709 h 0.751417 v 1.21709 h 1.693333 v 0.63499 h -1.693333 v 3.32317 q 0,0.49742 0.243416,0.762 0.254,0.254 0.719667,0.254 0.232833,0 0.4445,-0.0741 0.22225,-0.0741 0.381,-0.21167 z" />
      <path
         inkscape:connector-curvature="0"
         id="path831"
         style="font-style:normal;font-variant:normal;font-weight:normal;font-stretch:normal;font-size:medium;line-height:1.25;font-family:Montserrat;-inkscape-font-specification:Montserrat;letter-spacing:0px;word-spacing:0px;fill:#eec33b;fill-opacity:1;stroke:#383100;stroke-width:0.60000002;stroke-miterlimit:4;stroke-dasharray:none;stroke-opacity:1;paint-order:stroke fill markers"
         d="m 61.091456,145.22548 h 0.751417 v 5.56683 h -0.751417 z m 0.381,-1.21709 q -0.232833,0 -0.391583,-0.15875 -0.15875,-0.15875 -0.15875,-0.381 0,-0.21166 0.15875,-0.37041 0.15875,-0.15875 0.391583,-0.15875 0.232833,0 0.391583,0.15875 0.15875,0.14816 0.15875,0.35983 0,0.23283 -0.15875,0.39158 -0.15875,0.15875 -0.391583,0.15875 z" />
      <path
         inkscape:connector-curvature="0"
         id="path833"
         style="font-style:normal;font-variant:normal;font-weight:normal;font-stretch:normal;font-size:medium;line-height:1.25;font-family:Montserrat;-inkscape-font-specification:Montserrat;letter-spacing:0px;word-spacing:0px;fill:#eec33b;fill-opacity:1;stroke:#383100;stroke-width:0.60000002;stroke-miterlimit:4;stroke-dasharray:none;stroke-opacity:1;paint-order:stroke fill markers"
         d="m 63.118495,152.89839 q -0.34925,0 -0.656167,-0.0952 -0.3175,-0.0847 -0.518583,-0.26458 l 0.264583,-0.5715 q 0.328084,0.28575 0.867834,0.28575 0.4445,0 0.677333,-0.26459 0.243417,-0.26458 0.243417,-0.78316 v -5.97958 h 0.751416 v 5.97958 q 0,0.78316 -0.423333,1.23825 -0.423333,0.45508 -1.2065,0.45508 z m 1.259417,-8.90058 q -0.232834,0 -0.391584,-0.15875 -0.15875,-0.15875 -0.15875,-0.381 0,-0.21167 0.15875,-0.37042 0.15875,-0.15875 0.391584,-0.15875 0.232833,0 0.391583,0.15875 0.15875,0.14817 0.15875,0.35984 0,0.23283 -0.15875,0.39158 -0.15875,0.15875 -0.391583,0.15875 z" />
      <path
         inkscape:connector-curvature="0"
         id="path835"
         style="font-style:normal;font-variant:normal;font-weight:normal;font-stretch:normal;font-size:medium;line-height:1.25;font-family:Montserrat;-inkscape-font-specification:Montserrat;letter-spacing:0px;word-spacing:0px;fill:#eec402;fill-opacity:1;stroke:#383100;stroke-width:0.60000002;stroke-miterlimit:4;stroke-dasharray:none;stroke-opacity:1"
         d="m 71.917875,142.93948 v 7.85283 h -0.719666 v -1.10067 q -0.338667,0.56092 -0.899584,0.85725 -0.550333,0.29633 -1.248833,0.29633 -0.783167,0 -1.418167,-0.35983 -0.635,-0.35983 -0.994833,-1.00542 -0.359833,-0.64558 -0.359833,-1.47108 0,-0.8255 0.359833,-1.47108 0.359833,-0.64559 0.994833,-0.99484 0.635,-0.35983 1.418167,-0.35983 0.677333,0 1.217083,0.28575 0.550334,0.27517 0.899584,0.81492 v -3.34434 z m -2.804583,7.23899 q 0.582083,0 1.04775,-0.26458 0.47625,-0.27517 0.740833,-0.77258 0.275167,-0.49742 0.275167,-1.13242 0,-0.635 -0.275167,-1.13241 -0.264583,-0.49742 -0.740833,-0.762 -0.465667,-0.27517 -1.04775,-0.27517 -0.592667,0 -1.068917,0.27517 -0.465666,0.26458 -0.740833,0.762 -0.264583,0.49741 -0.264583,1.13241 0,0.635 0.264583,1.13242 0.275167,0.49741 0.740833,0.77258 0.47625,0.26458 1.068917,0.26458 z" />
      <path
         sodipodi:type="star"
         style="opacity:1;fill:#eec33b;fill-opacity:1;fill-rule:nonzero;stroke:#eec402;stroke-width:0.065;stroke-linecap:round;stroke-linejoin:miter;stroke-miterlimit:4;stroke-dasharray:none;stroke-dashoffset:0;stroke-opacity:1;paint-order:stroke fill markers"
         id="path837"
         sodipodi:sides="6"
         sodipodi:cx="76.173973"
         sodipodi:cy="66.189987"
         sodipodi:r1="1.0848724"
         sodipodi:r2="0.57855141"
         sodipodi:arg1="0.9151007"
         sodipodi:arg2="0.35225675"
         inkscape:flatsided="false"
         inkscape:rounded="0"
         inkscape:randomized="0"
         d="m 76.835431,67.049883 -0.118432,-0.660286 -0.956988,0.803178 0.512608,-0.432708 -1.174067,-0.427188 0.631041,0.227578 -0.217078,-1.230366 0.118432,0.660286 0.956989,-0.803177 -0.512609,0.432708 1.174067,0.427187 -0.63104,-0.227577 z"
         inkscape:transform-center-x="-25.368236"
         inkscape:transform-center-y="0.14780147"
         transform="matrix(2.2059775,0.36282761,-0.36282761,2.2059775,-74.915413,-25.590177)" />
      <path
         inkscape:connector-curvature="0"
         id="path839"
         style="font-style:normal;font-variant:normal;font-weight:normal;font-stretch:normal;font-size:medium;line-height:1.25;font-family:Montserrat;-inkscape-font-specification:Montserrat;letter-spacing:0px;word-spacing:0px;fill:#eec33b;fill-opacity:1;stroke:#383100;stroke-width:0.60000002;stroke-miterlimit:4;stroke-dasharray:none;stroke-opacity:1;paint-order:stroke fill markers"
         d="m 18.396306,150.85581 q -0.8255,0 -1.5875,-0.26459 -0.751417,-0.26458 -1.164167,-0.6985 l 0.306917,-0.60325 q 0.402166,0.40217 1.068916,0.65617 0.66675,0.24342 1.375834,0.24342 0.994833,0 1.49225,-0.35984 0.497416,-0.37041 0.497416,-0.9525 0,-0.4445 -0.275166,-0.70908 -0.264584,-0.26458 -0.656167,-0.40217 -0.391583,-0.14816 -1.090083,-0.3175 -0.836084,-0.21166 -1.3335,-0.40216 -0.497417,-0.20109 -0.85725,-0.60325 -0.34925,-0.40217 -0.34925,-1.09009 0,-0.56091 0.296333,-1.016 0.296333,-0.46566 0.910167,-0.74083 0.613833,-0.27517 1.524,-0.27517 0.635,0 1.23825,0.17992 0.613833,0.16933 1.058333,0.47625 l -0.264583,0.62442 q -0.465667,-0.30692 -0.994834,-0.45509 -0.529166,-0.15875 -1.037166,-0.15875 -0.973667,0 -1.471084,0.381 -0.486833,0.37042 -0.486833,0.96309 0,0.4445 0.264583,0.71966 0.275167,0.26459 0.677334,0.41275 0.41275,0.13759 1.100666,0.30692 0.814917,0.20108 1.312334,0.40217 0.508,0.1905 0.85725,0.59266 0.34925,0.39159 0.34925,1.06892 0,0.56092 -0.306917,1.02658 -0.296333,0.45509 -0.92075,0.73025 -0.624417,0.26459 -1.534583,0.26459 z" />
      <path
         inkscape:connector-curvature="0"
         id="path841"
         style="font-style:normal;font-variant:normal;font-weight:normal;font-stretch:normal;font-size:medium;line-height:1.25;font-family:Montserrat;-inkscape-font-specification:Montserrat;letter-spacing:0px;word-spacing:0px;fill:#eec33b;fill-opacity:1;stroke:#383100;stroke-width:0.60000002;stroke-miterlimit:4;stroke-dasharray:none;stroke-opacity:1;paint-order:stroke fill markers"
         d="m 22.864951,143.38397 h 0.783167 v 6.731 h 4.148667 v 0.67734 h -4.931834 z" />
      <path
         inkscape:connector-curvature="0"
         id="path843"
         style="font-style:normal;font-variant:normal;font-weight:normal;font-stretch:normal;font-size:medium;line-height:1.25;font-family:Montserrat;-inkscape-font-specification:Montserrat;letter-spacing:0px;word-spacing:0px;fill:#eec33b;fill-opacity:1;stroke:#383100;stroke-width:0.60000002;stroke-miterlimit:4;stroke-dasharray:none;stroke-opacity:1;paint-order:stroke fill markers"
         d="m 33.882535,145.22547 v 5.56684 h -0.71967 v -1.016 q -0.296333,0.508 -0.814916,0.79375 -0.518584,0.27516 -1.185334,0.27516 -1.090083,0 -1.725083,-0.60325 -0.624417,-0.61383 -0.624417,-1.78858 v -3.22792 h 0.751417 v 3.15384 q 0,0.87841 0.433917,1.3335 0.433916,0.45508 1.23825,0.45508 0.878416,0 1.386416,-0.52917 0.508,-0.53975 0.508,-1.49225 v -2.921 z" />
      <path
         inkscape:connector-curvature="0"
         id="path845"
         style="font-style:normal;font-variant:normal;font-weight:normal;font-stretch:normal;font-size:medium;line-height:1.25;font-family:Montserrat;-inkscape-font-specification:Montserrat;letter-spacing:0px;word-spacing:0px;fill:#eec33b;fill-opacity:1;stroke:#383100;stroke-width:0.60000002;stroke-miterlimit:4;stroke-dasharray:none;stroke-opacity:1;paint-order:stroke fill markers"
         d="m 40.675214,145.22547 -2.783416,6.23359 q -0.338667,0.78316 -0.783167,1.11125 -0.4445,0.32808 -1.068917,0.32808 -0.402166,0 -0.751416,-0.127 -0.34925,-0.127 -0.60325,-0.381 l 0.34925,-0.56092 q 0.423333,0.42334 1.016,0.42334 0.381,0 0.645583,-0.21167 0.275167,-0.21167 0.508,-0.71967 l 0.243417,-0.53975 -2.487084,-5.55625 h 0.783167 l 2.0955,4.73075 2.0955,-4.73075 z" />
      <path
         inkscape:connector-curvature="0"
         id="path847"
         style="font-style:normal;font-variant:normal;font-weight:normal;font-stretch:normal;font-size:medium;line-height:1.25;font-family:Montserrat;-inkscape-font-specification:Montserrat;letter-spacing:0px;word-spacing:0px;fill:#eec33b;fill-opacity:1;stroke:#383100;stroke-width:0.60000002;stroke-miterlimit:4;stroke-dasharray:none;stroke-opacity:1;paint-order:stroke fill markers"
         d="m 44.840748,150.45364 q -0.211667,0.1905 -0.529167,0.29633 -0.306916,0.0952 -0.645583,0.0952 -0.783167,0 -1.2065,-0.42333 -0.423333,-0.42333 -0.423333,-1.19592 v -3.3655 h -0.994834 v -0.635 h 0.994834 v -1.21708 h 0.751416 v 1.21708 h 1.693334 v 0.635 h -1.693334 v 3.32317 q 0,0.49742 0.243417,0.762 0.254,0.254 0.719667,0.254 0.232833,0 0.4445,-0.0741 0.22225,-0.0741 0.381,-0.21167 z" />
      <path
         inkscape:connector-curvature="0"
         id="path849"
         style="font-style:normal;font-variant:normal;font-weight:normal;font-stretch:normal;font-size:medium;line-height:1.25;font-family:Montserrat;-inkscape-font-specification:Montserrat;letter-spacing:0px;word-spacing:0px;fill:#eec33b;fill-opacity:1;stroke:#383100;stroke-width:0.60000002;stroke-miterlimit:4;stroke-dasharray:none;stroke-opacity:1;paint-order:stroke fill markers"
         d="m 50.849105,148.24172 h -4.656667 q 0.0635,0.86784 0.66675,1.40759 0.60325,0.52916 1.524,0.52916 0.518583,0 0.9525,-0.17991 0.433917,-0.1905 0.751417,-0.55034 l 0.423333,0.48684 q -0.370417,0.4445 -0.931333,0.67733 -0.550334,0.23283 -1.217084,0.23283 -0.85725,0 -1.524,-0.35983 -0.656166,-0.37042 -1.026583,-1.016 -0.370417,-0.64558 -0.370417,-1.4605 0,-0.81492 0.34925,-1.4605 0.359834,-0.64558 0.973667,-1.00542 0.624417,-0.35983 1.397,-0.35983 0.772583,0 1.386417,0.35983 0.613833,0.35984 0.963083,1.00542 0.34925,0.635 0.34925,1.4605 z m -2.688167,-2.413 q -0.804333,0 -1.354667,0.51859 -0.53975,0.508 -0.613833,1.3335 h 3.947583 q -0.07408,-0.8255 -0.624416,-1.3335 -0.53975,-0.51859 -1.354667,-0.51859 z" />
      <path
         inkscape:connector-curvature="0"
         id="path851"
         style="font-style:normal;font-variant:normal;font-weight:normal;font-stretch:normal;font-size:medium;line-height:1.25;font-family:Montserrat;-inkscape-font-specification:Montserrat;letter-spacing:0px;word-spacing:0px;fill:#eec33b;fill-opacity:1;stroke:#383100;stroke-width:0.60000002;stroke-miterlimit:4;stroke-dasharray:none;stroke-opacity:1;paint-order:stroke fill markers"
         d="m 53.10881,146.31556 q 0.264584,-0.56092 0.783167,-0.84667 0.529167,-0.28575 1.30175,-0.28575 v 0.73025 l -0.179917,-0.0106 q -0.878416,0 -1.375833,0.53975 -0.497417,0.53975 -0.497417,1.51342 v 2.83633 h -0.751416 v -5.56683 h 0.719666 z" />
      <path
         d="m 71.917875,142.95602 v 7.85283 h -0.719666 v -1.10067 q -0.338667,0.56092 -0.899584,0.85725 -0.550333,0.29633 -1.248833,0.29633 -0.783167,0 -1.418167,-0.35983 -0.635,-0.35983 -0.994833,-1.00542 -0.359833,-0.64558 -0.359833,-1.47108 0,-0.8255 0.359833,-1.47108 0.359833,-0.64559 0.994833,-0.99484 0.635,-0.35983 1.418167,-0.35983 0.677333,0 1.217083,0.28575 0.550334,0.27517 0.899584,0.81492 v -3.34434 z m -2.804583,7.23899 q 0.582083,0 1.04775,-0.26458 0.47625,-0.27517 0.740833,-0.77258 0.275167,-0.49742 0.275167,-1.13242 0,-0.635 -0.275167,-1.13241 -0.264583,-0.49742 -0.740833,-0.762 -0.465667,-0.27517 -1.04775,-0.27517 -0.592667,0 -1.068917,0.27517 -0.465666,0.26458 -0.740833,0.762 -0.264583,0.49741 -0.264583,1.13241 0,0.635 0.264583,1.13242 0.275167,0.49741 0.740833,0.77258 0.47625,0.26458 1.068917,0.26458 z"
         style="font-style:normal;font-variant:normal;font-weight:normal;font-stretch:normal;font-size:medium;line-height:1.25;font-family:Montserrat;-inkscape-font-specification:Montserrat;letter-spacing:0px;word-spacing:0px;fill:#eec33b;fill-opacity:1;stroke:none;stroke-width:0.26458332;stroke-opacity:1"
         id="path853"
         inkscape:connector-curvature="0" />
    </g>
    <g
       id="g5410"
       transform="matrix(1.6548328,0,0,1.6548328,-22.398049,42.227616)">
      <circle
         r="2.1430297"
         cy="147.97052"
         cx="69.016518"
         id="circle5368"
         style="opacity:1;fill:#383100;fill-opacity:1;fill-rule:nonzero;stroke:none;stroke-width:0.1544832;stroke-linecap:round;stroke-linejoin:miter;stroke-miterlimit:4;stroke-dasharray:none;stroke-dashoffset:0;stroke-opacity:1;paint-order:stroke fill markers" />
      <path
         d="m 59.72356,150.45364 q -0.211666,0.1905 -0.529166,0.29633 -0.306917,0.0952 -0.645584,0.0952 -0.783166,0 -1.2065,-0.42333 -0.423333,-0.42333 -0.423333,-1.19592 v -3.3655 h -0.994833 v -0.63499 h 0.994833 v -1.21709 h 0.751417 v 1.21709 h 1.693333 v 0.63499 h -1.693333 v 3.32317 q 0,0.49742 0.243416,0.762 0.254,0.254 0.719667,0.254 0.232833,0 0.4445,-0.0741 0.22225,-0.0741 0.381,-0.21167 z"
         style="font-style:normal;font-variant:normal;font-weight:normal;font-stretch:normal;font-size:medium;line-height:1.25;font-family:Montserrat;-inkscape-font-specification:Montserrat;letter-spacing:0px;word-spacing:0px;fill:#eec33b;fill-opacity:1;stroke:#383100;stroke-width:0.60000002;stroke-miterlimit:4;stroke-dasharray:none;stroke-opacity:1;paint-order:stroke fill markers"
         id="path5370"
         inkscape:connector-curvature="0" />
      <path
         d="m 61.091456,145.22548 h 0.751417 v 5.56683 h -0.751417 z m 0.381,-1.21709 q -0.232833,0 -0.391583,-0.15875 -0.15875,-0.15875 -0.15875,-0.381 0,-0.21166 0.15875,-0.37041 0.15875,-0.15875 0.391583,-0.15875 0.232833,0 0.391583,0.15875 0.15875,0.14816 0.15875,0.35983 0,0.23283 -0.15875,0.39158 -0.15875,0.15875 -0.391583,0.15875 z"
         style="font-style:normal;font-variant:normal;font-weight:normal;font-stretch:normal;font-size:medium;line-height:1.25;font-family:Montserrat;-inkscape-font-specification:Montserrat;letter-spacing:0px;word-spacing:0px;fill:#eec33b;fill-opacity:1;stroke:#383100;stroke-width:0.60000002;stroke-miterlimit:4;stroke-dasharray:none;stroke-opacity:1;paint-order:stroke fill markers"
         id="path5372"
         inkscape:connector-curvature="0" />
      <path
         d="m 63.118495,152.89839 q -0.34925,0 -0.656167,-0.0952 -0.3175,-0.0847 -0.518583,-0.26458 l 0.264583,-0.5715 q 0.328084,0.28575 0.867834,0.28575 0.4445,0 0.677333,-0.26459 0.243417,-0.26458 0.243417,-0.78316 v -5.97958 h 0.751416 v 5.97958 q 0,0.78316 -0.423333,1.23825 -0.423333,0.45508 -1.2065,0.45508 z m 1.259417,-8.90058 q -0.232834,0 -0.391584,-0.15875 -0.15875,-0.15875 -0.15875,-0.381 0,-0.21167 0.15875,-0.37042 0.15875,-0.15875 0.391584,-0.15875 0.232833,0 0.391583,0.15875 0.15875,0.14817 0.15875,0.35984 0,0.23283 -0.15875,0.39158 -0.15875,0.15875 -0.391583,0.15875 z"
         style="font-style:normal;font-variant:normal;font-weight:normal;font-stretch:normal;font-size:medium;line-height:1.25;font-family:Montserrat;-inkscape-font-specification:Montserrat;letter-spacing:0px;word-spacing:0px;fill:#eec33b;fill-opacity:1;stroke:#383100;stroke-width:0.60000002;stroke-miterlimit:4;stroke-dasharray:none;stroke-opacity:1;paint-order:stroke fill markers"
         id="path5374"
         inkscape:connector-curvature="0" />
      <path
         d="m 71.917875,142.93948 v 7.85283 h -0.719666 v -1.10067 q -0.338667,0.56092 -0.899584,0.85725 -0.550333,0.29633 -1.248833,0.29633 -0.783167,0 -1.418167,-0.35983 -0.635,-0.35983 -0.994833,-1.00542 -0.359833,-0.64558 -0.359833,-1.47108 0,-0.8255 0.359833,-1.47108 0.359833,-0.64559 0.994833,-0.99484 0.635,-0.35983 1.418167,-0.35983 0.677333,0 1.217083,0.28575 0.550334,0.27517 0.899584,0.81492 v -3.34434 z m -2.804583,7.23899 q 0.582083,0 1.04775,-0.26458 0.47625,-0.27517 0.740833,-0.77258 0.275167,-0.49742 0.275167,-1.13242 0,-0.635 -0.275167,-1.13241 -0.264583,-0.49742 -0.740833,-0.762 -0.465667,-0.27517 -1.04775,-0.27517 -0.592667,0 -1.068917,0.27517 -0.465666,0.26458 -0.740833,0.762 -0.264583,0.49741 -0.264583,1.13241 0,0.635 0.264583,1.13242 0.275167,0.49741 0.740833,0.77258 0.47625,0.26458 1.068917,0.26458 z"
         style="font-style:normal;font-variant:normal;font-weight:normal;font-stretch:normal;font-size:medium;line-height:1.25;font-family:Montserrat;-inkscape-font-specification:Montserrat;letter-spacing:0px;word-spacing:0px;fill:#eec402;fill-opacity:1;stroke:#383100;stroke-width:0.60000002;stroke-miterlimit:4;stroke-dasharray:none;stroke-opacity:1"
         id="path5376"
         inkscape:connector-curvature="0" />
      <path
         transform="matrix(2.2059775,0.36282761,-0.36282761,2.2059775,-74.915413,-25.590177)"
         inkscape:transform-center-y="0.14780147"
         inkscape:transform-center-x="-25.368236"
         d="m 76.835431,67.049883 -0.118432,-0.660286 -0.956988,0.803178 0.512608,-0.432708 -1.174067,-0.427188 0.631041,0.227578 -0.217078,-1.230366 0.118432,0.660286 0.956989,-0.803177 -0.512609,0.432708 1.174067,0.427187 -0.63104,-0.227577 z"
         inkscape:randomized="0"
         inkscape:rounded="0"
         inkscape:flatsided="false"
         sodipodi:arg2="0.35225675"
         sodipodi:arg1="0.9151007"
         sodipodi:r2="0.57855141"
         sodipodi:r1="1.0848724"
         sodipodi:cy="66.189987"
         sodipodi:cx="76.173973"
         sodipodi:sides="6"
         id="path5378"
         style="opacity:1;fill:#eec33b;fill-opacity:1;fill-rule:nonzero;stroke:#eec402;stroke-width:0.065;stroke-linecap:round;stroke-linejoin:miter;stroke-miterlimit:4;stroke-dasharray:none;stroke-dashoffset:0;stroke-opacity:1;paint-order:stroke fill markers"
         sodipodi:type="star" />
      <path
         d="m 18.396306,150.85581 q -0.8255,0 -1.5875,-0.26459 -0.751417,-0.26458 -1.164167,-0.6985 l 0.306917,-0.60325 q 0.402166,0.40217 1.068916,0.65617 0.66675,0.24342 1.375834,0.24342 0.994833,0 1.49225,-0.35984 0.497416,-0.37041 0.497416,-0.9525 0,-0.4445 -0.275166,-0.70908 -0.264584,-0.26458 -0.656167,-0.40217 -0.391583,-0.14816 -1.090083,-0.3175 -0.836084,-0.21166 -1.3335,-0.40216 -0.497417,-0.20109 -0.85725,-0.60325 -0.34925,-0.40217 -0.34925,-1.09009 0,-0.56091 0.296333,-1.016 0.296333,-0.46566 0.910167,-0.74083 0.613833,-0.27517 1.524,-0.27517 0.635,0 1.23825,0.17992 0.613833,0.16933 1.058333,0.47625 l -0.264583,0.62442 q -0.465667,-0.30692 -0.994834,-0.45509 -0.529166,-0.15875 -1.037166,-0.15875 -0.973667,0 -1.471084,0.381 -0.486833,0.37042 -0.486833,0.96309 0,0.4445 0.264583,0.71966 0.275167,0.26459 0.677334,0.41275 0.41275,0.13759 1.100666,0.30692 0.814917,0.20108 1.312334,0.40217 0.508,0.1905 0.85725,0.59266 0.34925,0.39159 0.34925,1.06892 0,0.56092 -0.306917,1.02658 -0.296333,0.45509 -0.92075,0.73025 -0.624417,0.26459 -1.534583,0.26459 z"
         style="font-style:normal;font-variant:normal;font-weight:normal;font-stretch:normal;font-size:medium;line-height:1.25;font-family:Montserrat;-inkscape-font-specification:Montserrat;letter-spacing:0px;word-spacing:0px;fill:#eec33b;fill-opacity:1;stroke:#383100;stroke-width:0.60000002;stroke-miterlimit:4;stroke-dasharray:none;stroke-opacity:1;paint-order:stroke fill markers"
         id="path5380"
         inkscape:connector-curvature="0" />
      <path
         d="m 22.864951,143.38397 h 0.783167 v 6.731 h 4.148667 v 0.67734 h -4.931834 z"
         style="font-style:normal;font-variant:normal;font-weight:normal;font-stretch:normal;font-size:medium;line-height:1.25;font-family:Montserrat;-inkscape-font-specification:Montserrat;letter-spacing:0px;word-spacing:0px;fill:#eec33b;fill-opacity:1;stroke:#383100;stroke-width:0.60000002;stroke-miterlimit:4;stroke-dasharray:none;stroke-opacity:1;paint-order:stroke fill markers"
         id="path5382"
         inkscape:connector-curvature="0" />
      <path
         d="m 33.882535,145.22547 v 5.56684 h -0.71967 v -1.016 q -0.296333,0.508 -0.814916,0.79375 -0.518584,0.27516 -1.185334,0.27516 -1.090083,0 -1.725083,-0.60325 -0.624417,-0.61383 -0.624417,-1.78858 v -3.22792 h 0.751417 v 3.15384 q 0,0.87841 0.433917,1.3335 0.433916,0.45508 1.23825,0.45508 0.878416,0 1.386416,-0.52917 0.508,-0.53975 0.508,-1.49225 v -2.921 z"
         style="font-style:normal;font-variant:normal;font-weight:normal;font-stretch:normal;font-size:medium;line-height:1.25;font-family:Montserrat;-inkscape-font-specification:Montserrat;letter-spacing:0px;word-spacing:0px;fill:#eec33b;fill-opacity:1;stroke:#383100;stroke-width:0.60000002;stroke-miterlimit:4;stroke-dasharray:none;stroke-opacity:1;paint-order:stroke fill markers"
         id="path5384"
         inkscape:connector-curvature="0" />
      <path
         d="m 40.675214,145.22547 -2.783416,6.23359 q -0.338667,0.78316 -0.783167,1.11125 -0.4445,0.32808 -1.068917,0.32808 -0.402166,0 -0.751416,-0.127 -0.34925,-0.127 -0.60325,-0.381 l 0.34925,-0.56092 q 0.423333,0.42334 1.016,0.42334 0.381,0 0.645583,-0.21167 0.275167,-0.21167 0.508,-0.71967 l 0.243417,-0.53975 -2.487084,-5.55625 h 0.783167 l 2.0955,4.73075 2.0955,-4.73075 z"
         style="font-style:normal;font-variant:normal;font-weight:normal;font-stretch:normal;font-size:medium;line-height:1.25;font-family:Montserrat;-inkscape-font-specification:Montserrat;letter-spacing:0px;word-spacing:0px;fill:#eec33b;fill-opacity:1;stroke:#383100;stroke-width:0.60000002;stroke-miterlimit:4;stroke-dasharray:none;stroke-opacity:1;paint-order:stroke fill markers"
         id="path5386"
         inkscape:connector-curvature="0" />
      <path
         d="m 44.840748,150.45364 q -0.211667,0.1905 -0.529167,0.29633 -0.306916,0.0952 -0.645583,0.0952 -0.783167,0 -1.2065,-0.42333 -0.423333,-0.42333 -0.423333,-1.19592 v -3.3655 h -0.994834 v -0.635 h 0.994834 v -1.21708 h 0.751416 v 1.21708 h 1.693334 v 0.635 h -1.693334 v 3.32317 q 0,0.49742 0.243417,0.762 0.254,0.254 0.719667,0.254 0.232833,0 0.4445,-0.0741 0.22225,-0.0741 0.381,-0.21167 z"
         style="font-style:normal;font-variant:normal;font-weight:normal;font-stretch:normal;font-size:medium;line-height:1.25;font-family:Montserrat;-inkscape-font-specification:Montserrat;letter-spacing:0px;word-spacing:0px;fill:#eec33b;fill-opacity:1;stroke:#383100;stroke-width:0.60000002;stroke-miterlimit:4;stroke-dasharray:none;stroke-opacity:1;paint-order:stroke fill markers"
         id="path5388"
         inkscape:connector-curvature="0" />
      <path
         d="m 50.849105,148.24172 h -4.656667 q 0.0635,0.86784 0.66675,1.40759 0.60325,0.52916 1.524,0.52916 0.518583,0 0.9525,-0.17991 0.433917,-0.1905 0.751417,-0.55034 l 0.423333,0.48684 q -0.370417,0.4445 -0.931333,0.67733 -0.550334,0.23283 -1.217084,0.23283 -0.85725,0 -1.524,-0.35983 -0.656166,-0.37042 -1.026583,-1.016 -0.370417,-0.64558 -0.370417,-1.4605 0,-0.81492 0.34925,-1.4605 0.359834,-0.64558 0.973667,-1.00542 0.624417,-0.35983 1.397,-0.35983 0.772583,0 1.386417,0.35983 0.613833,0.35984 0.963083,1.00542 0.34925,0.635 0.34925,1.4605 z m -2.688167,-2.413 q -0.804333,0 -1.354667,0.51859 -0.53975,0.508 -0.613833,1.3335 h 3.947583 q -0.07408,-0.8255 -0.624416,-1.3335 -0.53975,-0.51859 -1.354667,-0.51859 z"
         style="font-style:normal;font-variant:normal;font-weight:normal;font-stretch:normal;font-size:medium;line-height:1.25;font-family:Montserrat;-inkscape-font-specification:Montserrat;letter-spacing:0px;word-spacing:0px;fill:#eec33b;fill-opacity:1;stroke:#383100;stroke-width:0.60000002;stroke-miterlimit:4;stroke-dasharray:none;stroke-opacity:1;paint-order:stroke fill markers"
         id="path5390"
         inkscape:connector-curvature="0" />
      <path
         d="m 53.10881,146.31556 q 0.264584,-0.56092 0.783167,-0.84667 0.529167,-0.28575 1.30175,-0.28575 v 0.73025 l -0.179917,-0.0106 q -0.878416,0 -1.375833,0.53975 -0.497417,0.53975 -0.497417,1.51342 v 2.83633 h -0.751416 v -5.56683 h 0.719666 z"
         style="font-style:normal;font-variant:normal;font-weight:normal;font-stretch:normal;font-size:medium;line-height:1.25;font-family:Montserrat;-inkscape-font-specification:Montserrat;letter-spacing:0px;word-spacing:0px;fill:#eec33b;fill-opacity:1;stroke:#383100;stroke-width:0.60000002;stroke-miterlimit:4;stroke-dasharray:none;stroke-opacity:1;paint-order:stroke fill markers"
         id="path5392"
         inkscape:connector-curvature="0" />
      <path
         inkscape:connector-curvature="0"
         id="path5394"
         style="font-style:normal;font-variant:normal;font-weight:normal;font-stretch:normal;font-size:medium;line-height:1.25;font-family:Montserrat;-inkscape-font-specification:Montserrat;letter-spacing:0px;word-spacing:0px;fill:#eec33b;fill-opacity:1;stroke:none;stroke-width:0.26458332;stroke-opacity:1"
         d="m 71.917875,142.95602 v 7.85283 h -0.719666 v -1.10067 q -0.338667,0.56092 -0.899584,0.85725 -0.550333,0.29633 -1.248833,0.29633 -0.783167,0 -1.418167,-0.35983 -0.635,-0.35983 -0.994833,-1.00542 -0.359833,-0.64558 -0.359833,-1.47108 0,-0.8255 0.359833,-1.47108 0.359833,-0.64559 0.994833,-0.99484 0.635,-0.35983 1.418167,-0.35983 0.677333,0 1.217083,0.28575 0.550334,0.27517 0.899584,0.81492 v -3.34434 z m -2.804583,7.23899 q 0.582083,0 1.04775,-0.26458 0.47625,-0.27517 0.740833,-0.77258 0.275167,-0.49742 0.275167,-1.13242 0,-0.635 -0.275167,-1.13241 -0.264583,-0.49742 -0.740833,-0.762 -0.465667,-0.27517 -1.04775,-0.27517 -0.592667,0 -1.068917,0.27517 -0.465666,0.26458 -0.740833,0.762 -0.264583,0.49741 -0.264583,1.13241 0,0.635 0.264583,1.13242 0.275167,0.49741 0.740833,0.77258 0.47625,0.26458 1.068917,0.26458 z" />
    </g>
  </g>
</svg>
