<?xml version="1.0" encoding="UTF-8" standalone="no"?>
<svg
   xmlns:dc="http://purl.org/dc/elements/1.1/"
   xmlns:cc="http://creativecommons.org/ns#"
   xmlns:rdf="http://www.w3.org/1999/02/22-rdf-syntax-ns#"
   xmlns:svg="http://www.w3.org/2000/svg"
   xmlns="http://www.w3.org/2000/svg"
   xmlns:sodipodi="http://sodipodi.sourceforge.net/DTD/sodipodi-0.dtd"
   xmlns:inkscape="http://www.inkscape.org/namespaces/inkscape"
   sodipodi:docname="scroll-down.svg"
   inkscape:version="1.0 (4035a4f, 2020-05-01)"
   id="svg8"
   version="1.1"
   viewBox="0 0 30 30"
   height="30mm"
   width="30mm">
  <defs
     id="defs2">
    <rect
       id="rect1287"
       height="11.39213"
       width="45.141315"
       y="32.182766"
       x="61.090298" />
    <marker
       inkscape:isstock="true"
       style="overflow:visible"
       id="TriangleInL"
       refX="0"
       refY="0"
       orient="auto"
       inkscape:stockid="TriangleInL">
      <path
         transform="scale(-0.8)"
         style="fill:#000000;fill-opacity:1;fill-rule:evenodd;stroke:#000000;stroke-width:1pt;stroke-opacity:1"
         d="M 5.77,0 -2.88,5 V -5 Z"
         id="path968" />
    </marker>
    <marker
       inkscape:isstock="true"
       style="overflow:visible"
       id="Scissors"
       refX="0"
       refY="0"
       orient="auto"
       inkscape:stockid="Scissors">
      <path
         style="fill:#000000;fill-opacity:1;stroke:#000000;stroke-opacity:1"
         d="M 9.0898857,-3.6061018 C 8.1198849,-4.7769976 6.3697607,-4.7358294 5.0623558,-4.2327734 l -8.2124046,3.0779029 c -2.3882933,-1.3067135 -4.7482873,-0.9325372 -4.7482873,-1.5687873 0,-0.4973164 0.4566662,-0.3883222 0.3883068,-1.6831941 -0.065635,-1.2432767 -1.3635771,-2.1630796 -2.5903987,-2.0816435 -1.227271,-0.00735 -2.499439,0.9331613 -2.510341,2.2300611 -0.09143,1.3063864 1.007209,2.5196896 2.306764,2.6052316 1.5223406,0.2266616 4.218258,-0.6955566 5.482945,1.57086006 -0.9422847,1.73825774 -2.6140244,1.74307674 -4.1255107,1.65607034 -1.2548743,-0.072235 -2.7620933,0.2873979 -3.3606483,1.5208605 -0.578367,1.1820862 -0.0112,2.8646022 1.316749,3.226412 1.3401912,0.4918277 3.1806689,-0.129711 3.4993722,-1.6707242 0.2456585,-1.187823 -0.5953659,-1.7459574 -0.2725074,-2.1771537 0.2436135,-0.32536 1.7907806,-0.1368452 4.5471053,-1.3748244 L 5.6763468,4.2330688 C 6.8000164,4.5467672 8.1730685,4.5362646 9.1684433,3.4313614 l -9.22008423,-3.48508362 z m -18.3078016,-1.900504 c 1.294559,0.7227998 1.1888392,2.6835702 -0.1564272,3.0632889 -1.2165179,0.423661 -2.7710269,-0.7589694 -2.3831779,-2.0774648 0.227148,-1.0818519 1.653387,-1.480632 2.5396051,-0.9858241 z m 0.056264,8.0173649 c 1.3508301,0.4988648 1.1214429,2.7844356 -0.2522207,3.091609 -0.9110594,0.3163391 -2.2135494,-0.1387976 -2.3056964,-1.2121394 -0.177609,-1.305055 1.356085,-2.4841482 2.5579171,-1.8794696 z"
         id="schere" />
    </marker>
    <marker
       inkscape:isstock="true"
       style="overflow:visible"
       id="Arrow2Mend"
       refX="0"
       refY="0"
       orient="auto"
       inkscape:stockid="Arrow2Mend">
      <path
         transform="scale(-0.6)"
         d="M 8.7185878,4.0337352 -2.2072895,0.01601326 8.7185884,-4.0017078 c -1.7454984,2.3720609 -1.7354408,5.6174519 -6e-7,8.035443 z"
         style="fill:#000000;fill-opacity:1;fill-rule:evenodd;stroke:#000000;stroke-width:0.625;stroke-linejoin:round;stroke-opacity:1"
         id="path862" />
    </marker>
    <marker
       inkscape:isstock="true"
       style="overflow:visible"
       id="Arrow2Mstart"
       refX="0"
       refY="0"
       orient="auto"
       inkscape:stockid="Arrow2Mstart">
      <path
         transform="scale(0.6)"
         d="M 8.7185878,4.0337352 -2.2072895,0.01601326 8.7185884,-4.0017078 c -1.7454984,2.3720609 -1.7354408,5.6174519 -6e-7,8.035443 z"
         style="fill:#000000;fill-opacity:1;fill-rule:evenodd;stroke:#000000;stroke-width:0.625;stroke-linejoin:round;stroke-opacity:1"
         id="path859" />
    </marker>
    <filter
       height="1.174696"
       y="-0.087348022"
       width="1.1314214"
       x="-0.065710746"
       id="filter1333"
       style="color-interpolation-filters:sRGB"
       inkscape:collect="always">
      <feGaussianBlur
         id="feGaussianBlur1335"
         stdDeviation="0.77074377"
         inkscape:collect="always" />
    </filter>
    <filter
       inkscape:collect="always"
       style="color-interpolation-filters:sRGB"
       id="filter917"
       x="-0.046405137"
       width="1.0928103"
       y="-0.19541445"
       height="1.3908288">
      <feGaussianBlur
         inkscape:collect="always"
         stdDeviation="0.48680518"
         id="feGaussianBlur919" />
    </filter>
  </defs>
  <sodipodi:namedview
     inkscape:window-maximized="1"
     inkscape:window-y="23"
     inkscape:window-x="0"
     inkscape:window-height="855"
     inkscape:window-width="1440"
     showgrid="false"
     inkscape:document-rotation="0"
     inkscape:current-layer="layer1"
     inkscape:document-units="mm"
     inkscape:cy="127.17765"
     inkscape:cx="106.87921"
     inkscape:zoom="1.7412485"
     inkscape:pageshadow="2"
     inkscape:pageopacity="0.0"
     borderopacity="1.0"
     bordercolor="#666666"
     pagecolor="#ffffff"
     id="base" />
  <metadata
     id="metadata5">
    <rdf:RDF>
      <cc:Work
         rdf:about="">
        <dc:format>image/svg+xml</dc:format>
        <dc:type
           rdf:resource="http://purl.org/dc/dcmitype/StillImage" />
        <dc:title></dc:title>
      </cc:Work>
    </rdf:RDF>
  </metadata>
  <g
     id="layer1"
     inkscape:groupmode="layer"
     inkscape:label="Layer 1">
    <text
       style="font-size:10.58329999999999949px;line-height:1.25;font-family:Bangers;-inkscape-font-specification:Bangers;white-space:pre;shape-inside:url(#rect1287);"
       id="text1285"
       xml:space="preserve"><tspan
         style="visibility:hidden"
         x="61.089844"
         y="53.680076"><tspan
           dx="0 5.2089677 4.7748866 3.8240442 4.6715345 3.6173382 4.8989105 2.0670509 6.5525513 3.6173363 3.6173401">Ontdek meer</tspan></tspan></text>
    <g
       transform="translate(-41.884726,-26.593641)"
       id="g940">
      <g
         id="g1331"
         transform="translate(-33.037177,14.382564)"
         style="opacity:0.5;filter:url(#filter917)">
        <path
           sodipodi:type="star"
           style="fill:#000000;fill-opacity:1;stroke:none;stroke-width:1.91614;stroke-linecap:butt;stroke-miterlimit:4;stroke-dasharray:none;stroke-opacity:1;paint-order:fill markers stroke"
           id="path1327"
           sodipodi:sides="3"
           sodipodi:cx="41.296471"
           sodipodi:cy="34.176392"
           sodipodi:r1="14.536828"
           sodipodi:r2="7.268414"
           sodipodi:arg1="-0.51185584"
           sodipodi:arg2="0.53534171"
           inkscape:flatsided="true"
           inkscape:rounded="0"
           inkscape:randomized="0"
           d="M 53.970216,27.05631 41.12577,48.712217 28.793427,26.760647 Z"
           inkscape:transform-center-x="-0.085350015"
           inkscape:transform-center-y="0.96961396"
           transform="matrix(1,0,0,0.27236035,48.558955,28.040057)" />
        <path
           style="fill:none;stroke:#000000;stroke-width:0.264583px;stroke-linecap:butt;stroke-linejoin:miter;stroke-opacity:1"
           d="m 77.35238,35.328596 25.17679,0.08053 -12.844447,5.898211 z"
           id="path1329" />
      </g>
      <g
         style="font-size:10.5833px;line-height:1;font-family:Bangers;-inkscape-font-specification:Bangers;text-align:center;text-anchor:middle;opacity:0.5;fill:#000000;fill-opacity:1;stroke:#000000;stroke-width:0.264583;stroke-opacity:1;filter:url(#filter1333)"
         id="text1299"
         aria-label="Ontdek meer">
        <g
           transform="translate(1.6731688,-35.086949)"
           id="g987">
          <path
             d="m 46.734913,65.246595 q 0,0.867831 -0.190499,1.640412 -0.179916,0.761997 -0.486832,1.407579 -0.306916,0.634998 -0.719664,1.142996 -0.402166,0.497415 -0.846664,0.857247 -0.444499,0.349249 -0.899581,0.539748 -0.455082,0.179917 -0.86783,0.179917 -0.349249,0 -0.634998,-0.127 -0.285749,-0.137583 -0.497415,-0.391582 -0.211666,-0.264583 -0.338666,-0.666748 -0.116416,-0.412749 -0.116416,-0.984247 0,-0.592665 0.148166,-1.248829 0.148166,-0.656165 0.402165,-1.301746 0.253999,-0.645581 0.624415,-1.227663 0.370415,-0.582081 0.814914,-1.02658 0.444499,-0.455082 0.952497,-0.719664 0.507998,-0.264583 1.05833,-0.264583 0.476248,0 0.783164,0.201083 0.317499,0.190499 0.486832,0.507998 0.179916,0.306916 0.253999,0.698498 0.07408,0.391582 0.07408,0.783164 z m -4.021654,3.323156 q 0,0.116417 0.04233,0.243416 0.04233,0.127 0.116416,0.22225 0.07408,0.09525 0.179916,0.169332 0.116416,0.0635 0.243416,0.0635 0.476248,0 0.846664,-0.328082 0.370415,-0.328082 0.613831,-0.804331 0.243416,-0.476248 0.370416,-1.015997 0.137583,-0.539748 0.137583,-0.984247 0,-0.126999 -0.02117,-0.275165 -0.01058,-0.148167 -0.0635,-0.275166 -0.04233,-0.127 -0.148166,-0.211666 -0.09525,-0.09525 -0.264583,-0.09525 -0.338665,0 -0.624414,0.169333 -0.285749,0.169333 -0.518582,0.455082 -0.222249,0.275166 -0.391582,0.634998 -0.169333,0.349249 -0.296332,0.719664 -0.116417,0.359832 -0.169333,0.709081 -0.05292,0.349249 -0.05292,0.603248 z"
             style="text-align:center;text-anchor:middle;fill:#000000;fill-opacity:1;stroke:#000000;stroke-width:0.264583;stroke-opacity:1"
             id="path923" />
          <path
             d="m 46.07015,71.025077 q 0.317499,-1.523995 0.603248,-2.952741 0.105833,-0.613831 0.222249,-1.269996 0.127,-0.656164 0.232833,-1.291162 0.105833,-0.645582 0.190499,-1.227663 0.08467,-0.592665 0.127,-1.068913 0.137582,0.01058 0.232832,0.01058 0.09525,0 0.222249,0 0.148167,0 0.359833,0 0.211666,-0.01058 0.423332,-0.02117 0.211666,-0.01058 0.455082,-0.02117 0.148166,0.740831 0.264582,1.428745 0.116416,0.603248 0.232833,1.238246 0.126999,0.634998 0.222249,1.079497 0.04233,-0.211666 0.09525,-0.486832 0.05292,-0.285749 0.116416,-0.592665 0.0635,-0.306915 0.116416,-0.613831 0.0635,-0.317499 0.127,-0.624415 0.148166,-0.687914 0.306915,-1.418162 l 1.291163,-0.158749 q -0.359832,1.619244 -0.634998,3.069157 -0.127,0.624414 -0.253999,1.269995 -0.116416,0.634998 -0.222249,1.227663 -0.105833,0.582082 -0.179917,1.09008 -0.07408,0.497415 -0.116416,0.836081 -0.03175,0 -0.253999,0.05292 -0.211666,0.04233 -0.497415,0.105833 -0.275166,0.0635 -0.560915,0.127 -0.275166,0.0635 -0.412749,0.116416 -0.0635,-0.846664 -0.137583,-1.608661 -0.03175,-0.328083 -0.07408,-0.666748 -0.03175,-0.349249 -0.07408,-0.666748 -0.04233,-0.317499 -0.08467,-0.592665 -0.04233,-0.275166 -0.08467,-0.476248 -0.03175,0.201082 -0.08467,0.465665 -0.05292,0.264582 -0.105833,0.560915 -0.05292,0.296332 -0.105833,0.624414 -0.05292,0.317499 -0.116416,0.613832 -0.137583,0.709081 -0.296333,1.481662 z"
             style="text-align:center;text-anchor:middle;fill:#000000;fill-opacity:1;stroke:#000000;stroke-width:0.264583;stroke-opacity:1"
             id="path925" />
          <path
             d="m 51.744617,70.982744 q 0.243416,-1.164163 0.465665,-2.296576 0.09525,-0.476249 0.190499,-0.994831 0.09525,-0.518581 0.179916,-1.015996 0.09525,-0.507999 0.15875,-0.973664 0.07408,-0.476248 0.126999,-0.86783 -0.243415,-0.03175 -0.497415,-0.02117 -0.243416,0.01058 -0.486831,-0.0635 0.01058,-0.169333 0.01058,-0.391582 0,-0.222249 0.01058,-0.444499 0.01058,-0.243415 0.02117,-0.518581 0.275166,0.02117 0.550331,0.03175 0.275166,0.01058 0.550332,0.01058 0.539748,0 1.037163,-0.02117 0.507999,-0.03175 0.931331,-0.0635 0.433915,-0.04233 0.846664,-0.09525 l -0.116417,0.571498 q -0.05292,0.243416 -0.105833,0.497415 -0.04233,0.253999 -0.08467,0.433915 -0.232833,0.0635 -0.476249,0.09525 -0.232832,0.02117 -0.465665,0.0635 -0.07408,0.359832 -0.158749,0.804331 -0.08467,0.433915 -0.169333,0.910163 -0.07408,0.465666 -0.148166,0.952497 -0.07408,0.486832 -0.148166,0.931331 -0.169333,1.047746 -0.317499,2.169576 z"
             style="text-align:center;text-anchor:middle;fill:#000000;fill-opacity:1;stroke:#000000;stroke-width:0.264583;stroke-opacity:1"
             id="path927" />
          <path
             d="m 60.003063,65.564094 q 0,0.550332 -0.158749,1.174746 -0.15875,0.613832 -0.444499,1.227663 -0.285749,0.603248 -0.709081,1.164163 -0.412748,0.550332 -0.941913,0.973664 -0.529165,0.412748 -1.164163,0.666748 -0.624415,0.253999 -1.333496,0.253999 -0.148166,0 -0.296332,-0.02117 -0.148167,-0.01058 -0.296333,-0.03175 0.285749,-1.460495 0.560915,-2.846907 0.105833,-0.582082 0.222249,-1.206496 0.116417,-0.634998 0.22225,-1.24883 0.105833,-0.613831 0.201082,-1.174746 0.105833,-0.560915 0.169333,-1.015997 0.455082,-0.08467 0.920747,-0.158749 0.465665,-0.07408 0.952497,-0.07408 0.571498,0 0.96308,0.179916 0.402166,0.179916 0.645582,0.497415 0.253999,0.317499 0.370415,0.740831 0.116416,0.423332 0.116416,0.89958 z m -2.497658,-0.825497 q -0.116417,0.624415 -0.243416,1.195913 -0.127,0.571498 -0.253999,1.153579 -0.127,0.582082 -0.254,1.21708 -0.126999,0.634998 -0.243415,1.386412 0.253999,-0.169333 0.486831,-0.455082 0.243416,-0.296332 0.455082,-0.677331 0.211666,-0.380999 0.380999,-0.804331 0.179916,-0.423332 0.306916,-0.825497 0.126999,-0.402166 0.190499,-0.751414 0.07408,-0.349249 0.07408,-0.603248 0,-0.391583 -0.222249,-0.613832 -0.211666,-0.222249 -0.677331,-0.222249 z"
             style="text-align:center;text-anchor:middle;fill:#000000;fill-opacity:1;stroke:#000000;stroke-width:0.264583;stroke-opacity:1"
             id="path929" />
          <path
             d="m 59.372365,70.982744 1.386412,-7.524726 3.344323,-0.285749 q -0.07408,0.232832 -0.127,0.476248 -0.05292,0.201083 -0.105833,0.423332 -0.04233,0.211666 -0.07408,0.380999 -0.105833,0.01058 -0.306916,0.02117 -0.190499,0 -0.412748,0.01058 -0.22225,0 -0.455082,0 -0.222249,0 -0.391582,0 l -0.370416,1.89441 q 0.328083,-0.02117 0.613832,-0.03175 0.232832,-0.01058 0.476248,-0.01058 0.243416,0 0.359832,-0.01058 -0.04233,0.296332 -0.08467,0.582081 -0.03175,0.285749 -0.08467,0.582082 -0.105833,0.01058 -0.349249,0.02117 -0.232833,0 -0.476249,0.01058 -0.275166,0.01058 -0.603248,0.02117 l -0.359832,1.947327 1.545162,-0.243416 -0.105833,1.206497 z"
             style="text-align:center;text-anchor:middle;fill:#000000;fill-opacity:1;stroke:#000000;stroke-width:0.264583;stroke-opacity:1"
             id="path931" />
          <path
             d="m 62.97912,70.982744 q 0.317499,-1.481662 0.592665,-2.878658 0.105833,-0.603248 0.222249,-1.248829 0.116416,-0.645581 0.211666,-1.280579 0.105833,-0.634998 0.179916,-1.227663 0.08467,-0.603248 0.127,-1.09008 0.243415,0.02117 0.550331,0.04233 0.306916,0.01058 0.571498,0.03175 0.317499,0.02117 0.634998,0.02117 -0.01058,0.04233 -0.03175,0.158749 -0.02117,0.116416 -0.05292,0.285749 -0.03175,0.15875 -0.07408,0.359832 -0.03175,0.201083 -0.07408,0.402166 -0.08467,0.465665 -0.1905,1.047746 l 0.0635,-0.01058 q 0.105833,-0.169333 0.296332,-0.465665 0.201083,-0.306916 0.412749,-0.645581 0.211666,-0.338666 0.412749,-0.645582 0.201083,-0.317499 0.338665,-0.539748 0.529165,-0.04233 1.05833,-0.09525 0.529165,-0.05292 1.05833,-0.137582 -0.497415,0.666747 -0.96308,1.312329 -0.201083,0.275165 -0.412749,0.571498 -0.201082,0.296332 -0.402165,0.582081 -0.201083,0.285749 -0.380999,0.550332 -0.169333,0.264582 -0.306915,0.486832 0.232832,1.068913 0.550331,2.063743 0.317499,0.99483 0.645581,2.031994 -0.243415,-0.01058 -0.497415,-0.01058 -0.253999,-0.01058 -0.497415,-0.01058 -0.306915,0 -0.592665,0.01058 -0.285749,0 -0.592664,0.01058 -0.09525,-0.687915 -0.211666,-1.439329 -0.105833,-0.761998 -0.201083,-1.449912 l -0.190499,0.222249 q -0.07408,0.317499 -0.169333,0.783164 -0.08467,0.465665 -0.169333,0.899581 -0.09525,0.507998 -0.201083,1.047746 z"
             style="text-align:center;text-anchor:middle;fill:#000000;fill-opacity:1;stroke:#000000;stroke-width:0.264583;stroke-opacity:1"
             id="path933" />
          <path
             d="m 44.748891,81.49196 q 0.465665,-1.407579 0.888997,-2.762241 0.179916,-0.571498 0.370416,-1.195913 0.190499,-0.624415 0.380998,-1.238246 0.1905,-0.613831 0.349249,-1.18533 0.169333,-0.571498 0.296333,-1.058329 0.582081,0 1.100663,-0.0635 0.518581,-0.0635 1.12183,-0.116417 -0.03175,0.232833 -0.07408,0.529165 -0.03175,0.28575 -0.08467,0.603249 -0.04233,0.317498 -0.09525,0.656164 -0.05292,0.338666 -0.126999,0.867831 -0.07408,0.529165 -0.201083,1.322912 h 0.137583 q 0.306916,-0.804331 0.507998,-1.333496 0.201083,-0.539748 0.328083,-0.878414 0.126999,-0.338665 0.253999,-0.656164 0.137583,-0.328082 0.253999,-0.613831 0.127,-0.296333 0.232833,-0.518582 0.264582,-0.02117 0.497415,-0.05292 0.232832,-0.03175 0.465665,-0.0635 0.232832,-0.04233 0.465665,-0.07408 0.243416,-0.04233 0.529165,-0.09525 -0.105833,0.613831 -0.201083,1.259412 -0.09525,0.645582 -0.169332,1.291163 -0.07408,0.634998 -0.148167,1.259413 -0.0635,0.624414 -0.116416,1.185329 -0.127,1.312329 -0.222249,2.561159 l -1.841494,0.328082 q 0,-0.05292 0.01058,-0.285749 0.02117,-0.232833 0.04233,-0.571498 0.03175,-0.338666 0.07408,-0.751415 0.05292,-0.412748 0.09525,-0.825497 0.05292,-0.412749 0.105833,-0.793747 0.05292,-0.391582 0.105833,-0.666748 h -0.09525 q -0.148166,0.444498 -0.328082,0.941913 -0.179916,0.486832 -0.370416,0.994831 -0.179916,0.507998 -0.359832,0.99483 -0.179916,0.486831 -0.317499,0.93133 -0.370415,0.01058 -0.634998,0.03175 -0.264582,0.01058 -0.613831,0.03175 l 0.338666,-3.926404 h -0.15875 q -0.02117,0.137583 -0.105833,0.465665 -0.08467,0.317499 -0.201083,0.740831 -0.105833,0.412749 -0.232832,0.86783 -0.127,0.444499 -0.243416,0.836081 -0.105833,0.380999 -0.179916,0.634998 -0.07408,0.243416 -0.08467,0.275166 z"
             style="text-align:center;text-anchor:middle;fill:#000000;fill-opacity:1;stroke:#000000;stroke-width:0.264583;stroke-opacity:1"
             id="path935" />
          <path
             d="m 51.703607,81.566043 1.386412,-7.524726 3.344323,-0.285749 q -0.07408,0.232833 -0.127,0.476249 -0.05292,0.201082 -0.105833,0.423332 -0.04233,0.211666 -0.07408,0.380998 -0.105833,0.01058 -0.306915,0.02117 -0.1905,0 -0.412749,0.01058 -0.222249,0 -0.455082,0 -0.222249,0 -0.391582,0 l -0.370416,1.894411 q 0.328083,-0.02117 0.613832,-0.03175 0.232832,-0.01058 0.476248,-0.01058 0.243416,0 0.359833,-0.01058 -0.04233,0.296333 -0.08467,0.582082 -0.03175,0.285749 -0.08467,0.582081 -0.105833,0.01058 -0.349249,0.02117 -0.232833,0 -0.476249,0.01058 -0.275165,0.01058 -0.603248,0.02117 l -0.359832,1.947327 1.545162,-0.243416 -0.105833,1.206496 z"
             style="text-align:center;text-anchor:middle;fill:#000000;fill-opacity:1;stroke:#000000;stroke-width:0.264583;stroke-opacity:1"
             id="path937" />
          <path
             d="m 55.320946,81.566043 1.386412,-7.524726 3.344323,-0.285749 q -0.07408,0.232833 -0.127,0.476249 -0.05292,0.201082 -0.105833,0.423332 -0.04233,0.211666 -0.07408,0.380998 -0.105833,0.01058 -0.306916,0.02117 -0.190499,0 -0.412748,0.01058 -0.22225,0 -0.455082,0 -0.22225,0 -0.391582,0 l -0.370416,1.894411 q 0.328082,-0.02117 0.613832,-0.03175 0.232832,-0.01058 0.476248,-0.01058 0.243416,0 0.359832,-0.01058 -0.04233,0.296333 -0.08467,0.582082 -0.03175,0.285749 -0.08467,0.582081 -0.105833,0.01058 -0.349248,0.02117 -0.232833,0 -0.476249,0.01058 -0.275166,0.01058 -0.603248,0.02117 l -0.359832,1.947327 1.545162,-0.243416 -0.105833,1.206496 z"
             style="text-align:center;text-anchor:middle;fill:#000000;fill-opacity:1;stroke:#000000;stroke-width:0.264583;stroke-opacity:1"
             id="path939" />
          <path
             d="m 58.895951,81.566043 q 0.285749,-1.407579 0.550331,-2.751658 0.09525,-0.571498 0.211666,-1.185329 0.116417,-0.624415 0.211666,-1.227663 0.105833,-0.613831 0.1905,-1.174746 0.09525,-0.571498 0.148166,-1.037164 0.603248,-0.190499 1.301746,-0.275165 0.698498,-0.09525 1.386412,-0.09525 0.412749,0 0.677331,0.09525 0.275166,0.09525 0.423332,0.275165 0.15875,0.169333 0.222249,0.402166 0.0635,0.232832 0.0635,0.518581 0,0.423332 -0.148166,0.836081 -0.148166,0.402166 -0.402165,0.772581 -0.243416,0.359832 -0.571499,0.666748 -0.317499,0.296332 -0.687914,0.486832 0.190499,0.423332 0.402165,0.93133 0.22225,0.497415 0.412749,0.952497 0.211666,0.529165 0.433915,1.05833 l -1.640411,0.571498 q -0.211666,-0.677331 -0.380999,-1.269996 -0.07408,-0.243416 -0.148166,-0.497415 -0.07408,-0.264582 -0.137583,-0.497415 -0.0635,-0.232833 -0.105833,-0.412749 -0.04233,-0.190499 -0.05292,-0.306915 l -0.137583,0.04233 q -0.0635,0.338665 -0.15875,0.793747 -0.08467,0.455082 -0.158749,0.878414 -0.09525,0.497415 -0.1905,1.005414 z m 2.487075,-4.593152 q 0.201083,-0.02117 0.486832,-0.169333 0.296332,-0.148166 0.560915,-0.349248 0.264582,-0.211666 0.455082,-0.433916 0.190499,-0.222249 0.190499,-0.391582 0,-0.116416 -0.07408,-0.179916 -0.07408,-0.07408 -0.211666,-0.105833 -0.127,-0.04233 -0.285749,-0.05292 -0.15875,-0.01058 -0.328082,-0.01058 -0.116417,0 -0.243416,0.01058 -0.116417,0 -0.211666,0 z"
             style="text-align:center;text-anchor:middle;fill:#000000;fill-opacity:1;stroke:#000000;stroke-width:0.264583;stroke-opacity:1"
             id="path941" />
        </g>
      </g>
      <g
         style="font-size:10.5833px;line-height:1;font-family:Bangers;-inkscape-font-specification:Bangers;text-align:center;text-anchor:middle;fill:#eec33b;fill-opacity:1;stroke:#000000;stroke-width:0.264583;stroke-opacity:1"
         id="text1293"
         aria-label="Ontdek meer">
        <g
           id="g975">
          <path
             d="m 48.408081,30.159647 q 0,0.86783 -0.190499,1.640411 -0.179916,0.761998 -0.486832,1.407579 -0.306915,0.634998 -0.719664,1.142996 -0.402166,0.497416 -0.846664,0.857248 -0.444499,0.349249 -0.899581,0.539748 -0.455081,0.179916 -0.86783,0.179916 -0.349249,0 -0.634998,-0.126999 -0.285749,-0.137583 -0.497415,-0.391583 -0.211666,-0.264582 -0.338666,-0.666747 -0.116416,-0.412749 -0.116416,-0.984247 0,-0.592665 0.148166,-1.24883 0.148166,-0.656164 0.402165,-1.301745 0.254,-0.645582 0.624415,-1.227663 0.370416,-0.582082 0.814914,-1.02658 0.444499,-0.455082 0.952497,-0.719665 0.507999,-0.264582 1.05833,-0.264582 0.476249,0 0.783164,0.201083 0.317499,0.190499 0.486832,0.507998 0.179916,0.306916 0.253999,0.698498 0.07408,0.391582 0.07408,0.783164 z m -4.021653,3.323156 q 0,0.116416 0.04233,0.243416 0.04233,0.126999 0.116416,0.222249 0.07408,0.09525 0.179916,0.169333 0.116416,0.0635 0.243416,0.0635 0.476249,0 0.846664,-0.328083 0.370415,-0.328082 0.613831,-0.80433 0.243416,-0.476249 0.370416,-1.015997 0.137583,-0.539748 0.137583,-0.984247 0,-0.127 -0.02117,-0.275166 -0.01058,-0.148166 -0.0635,-0.275166 -0.04233,-0.126999 -0.148166,-0.211666 -0.09525,-0.09525 -0.264582,-0.09525 -0.338666,0 -0.624415,0.169333 -0.285749,0.169332 -0.518582,0.455081 -0.222249,0.275166 -0.391582,0.634998 -0.169333,0.349249 -0.296332,0.719665 -0.116416,0.359832 -0.169333,0.709081 -0.05292,0.349249 -0.05292,0.603248 z"
             style="text-align:center;text-anchor:middle;fill:#eec33b;fill-opacity:1;stroke:#000000;stroke-width:0.264583;stroke-opacity:1"
             id="path944" />
          <path
             d="m 47.743318,35.938128 q 0.317499,-1.523995 0.603248,-2.95274 0.105833,-0.613832 0.222249,-1.269996 0.127,-0.656165 0.232833,-1.291163 0.105833,-0.645581 0.190499,-1.227662 0.08467,-0.592665 0.127,-1.068914 0.137583,0.01058 0.232832,0.01058 0.09525,0 0.22225,0 0.148166,0 0.359832,0 0.211666,-0.01058 0.423332,-0.02117 0.211666,-0.01058 0.455082,-0.02117 0.148166,0.740831 0.264582,1.428746 0.116416,0.603248 0.232833,1.238246 0.126999,0.634998 0.222249,1.079496 0.04233,-0.211666 0.09525,-0.486831 0.05292,-0.285749 0.116416,-0.592665 0.0635,-0.306916 0.116416,-0.613831 0.0635,-0.317499 0.127,-0.624415 0.148166,-0.687915 0.306916,-1.418162 l 1.291162,-0.15875 q -0.359832,1.619245 -0.634998,3.069157 -0.126999,0.624415 -0.253999,1.269996 -0.116416,0.634998 -0.222249,1.227663 -0.105833,0.582081 -0.179916,1.09008 -0.07408,0.497415 -0.116417,0.83608 -0.03175,0 -0.253999,0.05292 -0.211666,0.04233 -0.497415,0.105833 -0.275166,0.0635 -0.560915,0.126999 -0.275166,0.0635 -0.412748,0.116417 -0.0635,-0.846664 -0.137583,-1.608662 -0.03175,-0.328082 -0.07408,-0.666748 -0.03175,-0.349249 -0.07408,-0.666748 -0.04233,-0.317499 -0.08467,-0.592664 -0.04233,-0.275166 -0.08467,-0.476249 -0.03175,0.201083 -0.08467,0.465665 -0.05292,0.264583 -0.105833,0.560915 -0.05292,0.296333 -0.105833,0.624415 -0.05292,0.317499 -0.116416,0.613831 -0.137583,0.709081 -0.296332,1.481662 z"
             style="text-align:center;text-anchor:middle;fill:#eec33b;fill-opacity:1;stroke:#000000;stroke-width:0.264583;stroke-opacity:1"
             id="path946" />
          <path
             d="m 53.417785,35.895795 q 0.243416,-1.164163 0.465665,-2.296576 0.09525,-0.476248 0.190499,-0.99483 0.09525,-0.518582 0.179917,-1.015997 0.09525,-0.507998 0.158749,-0.973663 0.07408,-0.476249 0.127,-0.867831 -0.243416,-0.03175 -0.497415,-0.02117 -0.243416,0.01058 -0.486832,-0.0635 0.01058,-0.169333 0.01058,-0.391582 0,-0.22225 0.01058,-0.444499 0.01058,-0.243416 0.02117,-0.518582 0.275166,0.02117 0.550332,0.03175 0.275165,0.01058 0.550331,0.01058 0.539748,0 1.037163,-0.02117 0.507999,-0.03175 0.931331,-0.0635 0.433915,-0.04233 0.846664,-0.09525 l -0.116416,0.571498 q -0.05292,0.243416 -0.105833,0.497415 -0.04233,0.253999 -0.08467,0.433915 -0.232832,0.0635 -0.476248,0.09525 -0.232833,0.02117 -0.465666,0.0635 -0.07408,0.359832 -0.158749,0.80433 -0.08467,0.433916 -0.169333,0.910164 -0.07408,0.465665 -0.148166,0.952497 -0.07408,0.486832 -0.148166,0.93133 -0.169333,1.047747 -0.317499,2.169577 z"
             style="text-align:center;text-anchor:middle;fill:#eec33b;fill-opacity:1;stroke:#000000;stroke-width:0.264583;stroke-opacity:1"
             id="path948" />
          <path
             d="m 61.676232,30.477146 q 0,0.550331 -0.15875,1.174746 -0.158749,0.613831 -0.444498,1.227663 -0.28575,0.603248 -0.709082,1.164163 -0.412748,0.550331 -0.941913,0.973663 -0.529165,0.412749 -1.164163,0.666748 -0.624415,0.253999 -1.333496,0.253999 -0.148166,0 -0.296332,-0.02117 -0.148166,-0.01058 -0.296333,-0.03175 0.285749,-1.460495 0.560915,-2.846908 0.105833,-0.582081 0.22225,-1.206496 0.116416,-0.634998 0.222249,-1.248829 0.105833,-0.613832 0.201082,-1.174746 0.105833,-0.560915 0.169333,-1.015997 0.455082,-0.08467 0.920747,-0.15875 0.465666,-0.07408 0.952497,-0.07408 0.571499,0 0.963081,0.179916 0.402165,0.179916 0.645581,0.497415 0.253999,0.317499 0.370415,0.740831 0.116417,0.423332 0.116417,0.899582 z m -2.497659,-0.825498 q -0.116416,0.624415 -0.243416,1.195913 -0.127,0.571498 -0.253999,1.15358 -0.127,0.582081 -0.253999,1.217079 -0.127,0.634998 -0.243416,1.386413 0.253999,-0.169333 0.486832,-0.455082 0.243415,-0.296333 0.455081,-0.677331 0.211666,-0.380999 0.380999,-0.804331 0.179916,-0.423332 0.306916,-0.825498 0.127,-0.402165 0.190499,-0.751414 0.07408,-0.349249 0.07408,-0.603248 0,-0.391582 -0.222249,-0.613831 -0.211666,-0.22225 -0.677331,-0.22225 z"
             style="text-align:center;text-anchor:middle;fill:#eec33b;fill-opacity:1;stroke:#000000;stroke-width:0.264583;stroke-opacity:1"
             id="path950" />
          <path
             d="m 61.045533,35.895795 1.386412,-7.524726 3.344323,-0.285749 q -0.07408,0.232833 -0.127,0.476249 -0.05292,0.201082 -0.105833,0.423332 -0.04233,0.211666 -0.07408,0.380998 -0.105833,0.01058 -0.306915,0.02117 -0.1905,0 -0.412749,0.01058 -0.222249,0 -0.455082,0 -0.222249,0 -0.391582,0 l -0.370416,1.894411 q 0.328083,-0.02117 0.613832,-0.03175 0.232832,-0.01058 0.476248,-0.01058 0.243416,0 0.359833,-0.01058 -0.04233,0.296333 -0.08467,0.582082 -0.03175,0.285749 -0.08467,0.582081 -0.105833,0.01058 -0.349249,0.02117 -0.232833,0 -0.476249,0.01058 -0.275165,0.01058 -0.603248,0.02117 l -0.359832,1.947327 1.545162,-0.243416 -0.105833,1.206496 z"
             style="text-align:center;text-anchor:middle;fill:#eec33b;fill-opacity:1;stroke:#000000;stroke-width:0.264583;stroke-opacity:1"
             id="path952" />
          <path
             d="m 64.652288,35.895795 q 0.317499,-1.481662 0.592665,-2.878657 0.105833,-0.603248 0.222249,-1.24883 0.116416,-0.645581 0.211666,-1.280579 0.105833,-0.634998 0.179916,-1.227663 0.08467,-0.603248 0.127,-1.090079 0.243416,0.02117 0.550331,0.04233 0.306916,0.01058 0.571498,0.03175 0.317499,0.02117 0.634998,0.02117 -0.01058,0.04233 -0.03175,0.15875 -0.02117,0.116416 -0.05292,0.285749 -0.03175,0.158749 -0.07408,0.359832 -0.03175,0.201083 -0.07408,0.402165 -0.08467,0.465666 -0.1905,1.047747 l 0.0635,-0.01058 q 0.105833,-0.169333 0.296333,-0.465665 0.201082,-0.306916 0.412748,-0.645582 0.211666,-0.338665 0.412749,-0.645581 0.201083,-0.317499 0.338666,-0.539748 0.529165,-0.04233 1.05833,-0.09525 0.529165,-0.05292 1.05833,-0.137583 -0.497416,0.666748 -0.963081,1.312329 -0.201082,0.275166 -0.412748,0.571498 -0.201083,0.296333 -0.402166,0.582082 -0.201082,0.285749 -0.380999,0.550332 -0.169332,0.264582 -0.306915,0.486831 0.232832,1.068914 0.550331,2.063744 0.317499,0.99483 0.645582,2.031993 -0.243416,-0.01058 -0.497416,-0.01058 -0.253999,-0.01058 -0.497415,-0.01058 -0.306915,0 -0.592664,0.01058 -0.285749,0 -0.592665,0.01058 -0.09525,-0.687914 -0.211666,-1.439328 Q 67.19228,33.37697 67.09703,32.689055 l -0.190499,0.22225 q -0.07408,0.317499 -0.169333,0.783164 -0.08467,0.465665 -0.169333,0.89958 -0.09525,0.507999 -0.201083,1.047747 z"
             style="text-align:center;text-anchor:middle;fill:#eec33b;fill-opacity:1;stroke:#000000;stroke-width:0.264583;stroke-opacity:1"
             id="path954" />
          <path
             d="m 46.422059,46.405012 q 0.465665,-1.407579 0.888997,-2.762241 0.179916,-0.571499 0.370416,-1.195913 0.190499,-0.624415 0.380999,-1.238246 0.190499,-0.613832 0.349248,-1.18533 0.169333,-0.571498 0.296333,-1.05833 0.582081,0 1.100663,-0.0635 0.518582,-0.0635 1.12183,-0.116416 -0.03175,0.232833 -0.07408,0.529165 -0.03175,0.285749 -0.08467,0.603248 -0.04233,0.317499 -0.09525,0.656165 -0.05292,0.338665 -0.127,0.86783 -0.07408,0.529165 -0.201083,1.322913 h 0.137583 q 0.306916,-0.804331 0.507999,-1.333496 0.201082,-0.539748 0.328082,-0.878414 0.126999,-0.338666 0.253999,-0.656164 0.137583,-0.328083 0.253999,-0.613832 0.127,-0.296332 0.232833,-0.518582 0.264582,-0.02117 0.497415,-0.05292 0.232832,-0.03175 0.465665,-0.0635 0.232833,-0.04233 0.465665,-0.07408 0.243416,-0.04233 0.529165,-0.09525 -0.105833,0.613832 -0.201082,1.259413 -0.09525,0.645581 -0.169333,1.291163 -0.07408,0.634998 -0.148166,1.259412 -0.0635,0.624415 -0.116417,1.18533 -0.126999,1.312329 -0.222249,2.561158 l -1.841494,0.328083 q 0,-0.05292 0.01058,-0.28575 0.02117,-0.232832 0.04233,-0.571498 0.03175,-0.338665 0.07408,-0.751414 0.05292,-0.412749 0.09525,-0.825497 0.05292,-0.412749 0.105833,-0.793748 0.05292,-0.391582 0.105833,-0.666748 h -0.09525 q -0.148166,0.444499 -0.328082,0.941914 -0.179916,0.486832 -0.370415,0.99483 -0.179916,0.507999 -0.359833,0.99483 -0.179916,0.486832 -0.317499,0.931331 -0.370415,0.01058 -0.634998,0.03175 -0.264582,0.01058 -0.613831,0.03175 L 49.3748,42.468024 h -0.15875 q -0.02117,0.137583 -0.105833,0.465666 -0.08467,0.317498 -0.201082,0.74083 -0.105833,0.412749 -0.232833,0.867831 -0.127,0.444499 -0.243416,0.836081 -0.105833,0.380999 -0.179916,0.634998 -0.07408,0.243416 -0.08467,0.275165 z"
             style="text-align:center;text-anchor:middle;fill:#eec33b;fill-opacity:1;stroke:#000000;stroke-width:0.264583;stroke-opacity:1"
             id="path956" />
          <path
             d="m 53.376775,46.479095 1.386413,-7.524726 3.344322,-0.285749 q -0.07408,0.232832 -0.126999,0.476248 -0.05292,0.201083 -0.105833,0.423332 -0.04233,0.211666 -0.07408,0.380999 -0.105833,0.01058 -0.306916,0.02117 -0.1905,0 -0.412749,0.01058 -0.222249,0 -0.455082,0 -0.222249,0 -0.391582,0 l -0.370415,1.894411 q 0.328082,-0.02117 0.613831,-0.03175 0.232833,-0.01058 0.476249,-0.01058 0.243415,0 0.359832,-0.01058 -0.04233,0.296332 -0.08467,0.582082 -0.03175,0.285749 -0.08467,0.582081 -0.105833,0.01058 -0.349249,0.02117 -0.232833,0 -0.476248,0.01058 -0.275166,0.01058 -0.603249,0.02117 l -0.359832,1.947328 1.545162,-0.243416 -0.105833,1.206496 z"
             style="text-align:center;text-anchor:middle;fill:#eec33b;fill-opacity:1;stroke:#000000;stroke-width:0.264583;stroke-opacity:1"
             id="path958" />
          <path
             d="m 56.994114,46.479095 1.386412,-7.524726 3.344323,-0.285749 q -0.07408,0.232832 -0.127,0.476248 -0.05292,0.201083 -0.105833,0.423332 -0.04233,0.211666 -0.07408,0.380999 -0.105833,0.01058 -0.306916,0.02117 -0.190499,0 -0.412748,0.01058 -0.222249,0 -0.455082,0 -0.222249,0 -0.391582,0 l -0.370416,1.894411 q 0.328083,-0.02117 0.613832,-0.03175 0.232832,-0.01058 0.476248,-0.01058 0.243416,0 0.359832,-0.01058 -0.04233,0.296332 -0.08467,0.582082 -0.03175,0.285749 -0.08467,0.582081 -0.105833,0.01058 -0.349249,0.02117 -0.232833,0 -0.476249,0.01058 -0.275166,0.01058 -0.603248,0.02117 l -0.359832,1.947328 1.545162,-0.243416 -0.105833,1.206496 z"
             style="text-align:center;text-anchor:middle;fill:#eec33b;fill-opacity:1;stroke:#000000;stroke-width:0.264583;stroke-opacity:1"
             id="path960" />
          <path
             d="m 60.569119,46.479095 q 0.285749,-1.407579 0.550331,-2.751658 0.09525,-0.571498 0.211666,-1.18533 0.116417,-0.624414 0.211666,-1.227662 0.105833,-0.613832 0.1905,-1.174747 0.09525,-0.571498 0.148166,-1.037163 0.603248,-0.190499 1.301746,-0.275166 0.698498,-0.09525 1.386412,-0.09525 0.412749,0 0.677331,0.09525 0.275166,0.09525 0.423332,0.275166 0.15875,0.169333 0.22225,0.402165 0.0635,0.232833 0.0635,0.518582 0,0.423332 -0.148166,0.836081 -0.148166,0.402165 -0.402165,0.772581 -0.243416,0.359832 -0.571498,0.666748 -0.317499,0.296332 -0.687915,0.486831 0.1905,0.423332 0.402166,0.931331 0.222249,0.497415 0.412748,0.952497 0.211666,0.529165 0.433916,1.05833 l -1.640412,0.571498 q -0.211666,-0.677331 -0.380999,-1.269996 -0.07408,-0.243416 -0.148166,-0.497415 -0.07408,-0.264583 -0.137583,-0.497415 -0.0635,-0.232833 -0.105833,-0.412749 -0.04233,-0.190499 -0.05292,-0.306916 l -0.137583,0.04233 q -0.0635,0.338666 -0.15875,0.793748 -0.08467,0.455082 -0.158749,0.878414 -0.09525,0.497415 -0.1905,1.005413 z m 2.487075,-4.593152 q 0.201083,-0.02117 0.486832,-0.169333 0.296332,-0.148166 0.560915,-0.349249 0.264582,-0.211666 0.455082,-0.433915 0.190499,-0.222249 0.190499,-0.391582 0,-0.116417 -0.07408,-0.179916 -0.07408,-0.07408 -0.211666,-0.105833 -0.126999,-0.04233 -0.285749,-0.05292 -0.158749,-0.01058 -0.328082,-0.01058 -0.116417,0 -0.243416,0.01058 -0.116416,0 -0.211666,0 z"
             style="text-align:center;text-anchor:middle;fill:#eec33b;fill-opacity:1;stroke:#000000;stroke-width:0.264583;stroke-opacity:1"
             id="path962" />
        </g>
      </g>
      <g
         id="g1325"
         transform="translate(-33.037179,14.382567)">
        <path
           transform="matrix(1,0,0,0.27236035,48.558955,28.040057)"
           inkscape:transform-center-y="0.96961396"
           inkscape:transform-center-x="-0.085350015"
           d="M 53.970216,27.05631 41.12577,48.712217 28.793427,26.760647 Z"
           inkscape:randomized="0"
           inkscape:rounded="0"
           inkscape:flatsided="true"
           sodipodi:arg2="0.53534171"
           sodipodi:arg1="-0.51185584"
           sodipodi:r2="7.268414"
           sodipodi:r1="14.536828"
           sodipodi:cy="34.176392"
           sodipodi:cx="41.296471"
           sodipodi:sides="3"
           id="path1295"
           style="fill:#eec33b;fill-opacity:1;stroke:none;stroke-width:1.91614;stroke-linecap:butt;stroke-miterlimit:4;stroke-dasharray:none;stroke-opacity:1;paint-order:fill markers stroke"
           sodipodi:type="star" />
        <path
           id="path1317"
           d="m 77.35238,35.328596 25.17679,0.08053 -12.844447,5.898211 z"
           style="fill:none;stroke:#000000;stroke-width:0.264583px;stroke-linecap:butt;stroke-linejoin:miter;stroke-opacity:1" />
      </g>
    </g>
  </g>
</svg>
