<?xml version="1.0" encoding="UTF-8" standalone="no"?>
<!-- Created with Inkscape (http://www.inkscape.org/) -->

<svg
   xmlns:dc="http://purl.org/dc/elements/1.1/"
   xmlns:cc="http://creativecommons.org/ns#"
   xmlns:rdf="http://www.w3.org/1999/02/22-rdf-syntax-ns#"
   xmlns:svg="http://www.w3.org/2000/svg"
   xmlns="http://www.w3.org/2000/svg"
   xmlns:sodipodi="http://sodipodi.sourceforge.net/DTD/sodipodi-0.dtd"
   xmlns:inkscape="http://www.inkscape.org/namespaces/inkscape"
   width="46mm"
   height="14mm"
   viewBox="0 0 45.999998 14.000001"
   version="1.1"
   id="svg8"
   inkscape:version="0.92.3 (2405546, 2018-03-11)"
   sodipodi:docname="underline.svg">
  <defs
     id="defs2" />
  <sodipodi:namedview
     id="base"
     pagecolor="#ffffff"
     bordercolor="#666666"
     borderopacity="1.0"
     inkscape:pageopacity="0.0"
     inkscape:pageshadow="2"
     inkscape:zoom="3.959798"
     inkscape:cx="85.944033"
     inkscape:cy="65.324855"
     inkscape:document-units="mm"
     inkscape:current-layer="layer1"
     showgrid="false"
     units="mm"
     inkscape:window-width="2560"
     inkscape:window-height="1387"
     inkscape:window-x="-8"
     inkscape:window-y="-8"
     inkscape:window-maximized="1" />
  <metadata
     id="metadata5">
    <rdf:RDF>
      <cc:Work
         rdf:about="">
        <dc:format>image/svg+xml</dc:format>
        <dc:type
           rdf:resource="http://purl.org/dc/dcmitype/StillImage" />
        <dc:title></dc:title>
      </cc:Work>
    </rdf:RDF>
  </metadata>
  <g
     inkscape:label="Laag 1"
     inkscape:groupmode="layer"
     id="layer1"
     transform="translate(0,-282.99999)">
    <path
       style="opacity:1;vector-effect:none;fill:#000000;fill-opacity:0.96279069;fill-rule:nonzero;stroke:none;stroke-width:0.66500002;stroke-linecap:butt;stroke-linejoin:miter;stroke-miterlimit:4;stroke-dasharray:1.99500012, 0.66500004;stroke-dashoffset:0;stroke-opacity:1;paint-order:stroke markers fill"
       id="path829"
       d="m 6.8431379,294.70776 c 1.437833,-0.19188 2.888187,-0.24472 4.3367961,-0.27545 2.323433,-0.0366 4.646803,0.003 6.969646,0.0543 2.552695,0.0477 5.104741,0.1253 7.656449,0.20988 2.526631,0.0678 5.049748,0.21827 7.575681,0.30626 2.20868,0.0684 4.41851,0.0846 6.62809,0.0914 2.12782,-0.0194 6.7948,0.69816 1.39531,0.3587 -1.09091,-0.0524 -2.18142,-0.0729 -3.27381,-0.062 -2.19607,-0.0133 -4.39235,-0.0335 -6.58748,-0.10367 -2.52376,-0.0917 -5.045122,-0.23882 -7.56976,-0.30672 -3.409007,-0.065 -6.816085,-0.27553 -10.225659,-0.25661 -0.221345,0.002 -0.442683,0.004 -0.664025,0.006 -1.45288,0.0251 -2.907737,0.0689 -4.3509801,0.2512 -1.248922,0.18244 -3.3897556,0.83086 -4.6174816,0.78248 -3.045306,-0.36235 2.368222,-1.00777 2.7272236,-1.05606 z"
       inkscape:connector-curvature="0"
       sodipodi:nodetypes="ccccccccccccccc" />
  </g>
</svg>
