<?xml version="1.0" encoding="UTF-8" standalone="no"?>
<!-- Created with Inkscape (http://www.inkscape.org/) -->

<svg
   xmlns:dc="http://purl.org/dc/elements/1.1/"
   xmlns:cc="http://creativecommons.org/ns#"
   xmlns:rdf="http://www.w3.org/1999/02/22-rdf-syntax-ns#"
   xmlns:svg="http://www.w3.org/2000/svg"
   xmlns="http://www.w3.org/2000/svg"
   xmlns:sodipodi="http://sodipodi.sourceforge.net/DTD/sodipodi-0.dtd"
   xmlns:inkscape="http://www.inkscape.org/namespaces/inkscape"
   width="250"
   height="50"
   viewBox="0 0 66.145832 13.229167"
   version="1.1"
   id="svg8"
   inkscape:version="0.92.3 (2405546, 2018-03-11)"
   sodipodi:docname="logo.svg">
  <defs
     id="defs2" />
  <sodipodi:namedview
     id="base"
     pagecolor="#ffffff"
     bordercolor="#666666"
     borderopacity="1.0"
     inkscape:pageopacity="0.0"
     inkscape:pageshadow="2"
     inkscape:zoom="5.6568542"
     inkscape:cx="120.19958"
     inkscape:cy="1.4994118"
     inkscape:document-units="mm"
     inkscape:current-layer="g979"
     showgrid="false"
     inkscape:window-width="2560"
     inkscape:window-height="1387"
     inkscape:window-x="-8"
     inkscape:window-y="-8"
     inkscape:window-maximized="1"
     inkscape:snap-nodes="false"
     units="px" />
  <metadata
     id="metadata5">
    <rdf:RDF>
      <cc:Work
         rdf:about="">
        <dc:format>image/svg+xml</dc:format>
        <dc:type
           rdf:resource="http://purl.org/dc/dcmitype/StillImage" />
        <dc:title></dc:title>
      </cc:Work>
    </rdf:RDF>
  </metadata>
  <g
     inkscape:label="Laag 1"
     inkscape:groupmode="layer"
     id="layer1"
     transform="translate(0,-283.77082)">
    <g
       id="g979"
       transform="translate(-19.909896,-11.773958)"
       inkscape:export-xdpi="899"
       inkscape:export-ydpi="899">
      <rect
         style="opacity:1;vector-effect:none;fill:#ffffff;fill-opacity:0.96279069;fill-rule:nonzero;stroke:none;stroke-width:0.61766994;stroke-linecap:butt;stroke-linejoin:miter;stroke-miterlimit:4;stroke-dasharray:1.85300999, 0.61766998;stroke-dashoffset:0;stroke-opacity:1;paint-order:stroke markers fill"
         id="rect889"
         width="66.145836"
         height="13.229167"
         x="19.909895"
         y="295.54477" />
      <g
         aria-label="SLuyten"
         transform="matrix(0.26458333,0,0,0.26458333,-8.0851071,257.23058)"
         style="font-style:normal;font-weight:normal;font-size:40px;line-height:1.25;font-family:sans-serif;letter-spacing:0px;word-spacing:0px;fill:#c8c8c8;fill-opacity:1;stroke:#c8c8c8;stroke-width:1.88976383;stroke-miterlimit:4;stroke-dasharray:none;stroke-opacity:1"
         id="flowRoot942">
        <path
           d="m 130.4675,181.69515 q -3.12,0 -6,-1 -2.84,-1 -4.4,-2.64 l 1.16,-2.28 q 1.52,1.52 4.04,2.48 2.52,0.92 5.2,0.92 3.76,0 5.64,-1.36 1.88,-1.4 1.88,-3.6 0,-1.68 -1.04,-2.68 -1,-1 -2.48,-1.52 -1.48,-0.56 -4.12,-1.2 -3.16,-0.8 -5.04,-1.52 -1.88,-0.76 -3.24,-2.28 -1.32,-1.52 -1.32,-4.12 0,-2.12 1.12,-3.84 1.12,-1.76 3.44,-2.8 2.32,-1.04 5.76,-1.04 2.4,0 4.68,0.68 2.32,0.64 4,1.8 l -1,2.36 q -1.76,-1.16 -3.76,-1.72 -2,-0.6 -3.92,-0.6 -3.68,0 -5.56,1.44 -1.84,1.4 -1.84,3.64 0,1.68 1,2.72 1.04,1 2.56,1.56 1.56,0.52 4.16,1.16 3.08,0.76 4.96,1.52 1.92,0.72 3.24,2.24 1.32,1.48 1.32,4.04 0,2.12 -1.16,3.88 -1.12,1.72 -3.48,2.76 -2.36,1 -5.8,1 z"
           style="font-style:normal;font-variant:normal;font-weight:normal;font-stretch:normal;font-family:Montserrat;-inkscape-font-specification:Montserrat;fill:#c8c8c8;fill-opacity:1;stroke:#c8c8c8;stroke-width:1.88976383;stroke-miterlimit:4;stroke-dasharray:none;stroke-opacity:1"
           id="path961" />
        <path
           d="m 147.35687,153.45515 h 2.96 v 25.44 h 15.68 v 2.56 h -18.64 z"
           style="font-style:normal;font-variant:normal;font-weight:normal;font-stretch:normal;font-family:Montserrat;-inkscape-font-specification:Montserrat;fill:#c8c8c8;fill-opacity:1;stroke:#c8c8c8;stroke-width:1.88976383;stroke-miterlimit:4;stroke-dasharray:none;stroke-opacity:1"
           id="path963" />
        <path
           d="m 188.99813,160.41515 v 21.04 h -2.72001 v -3.84 q -1.12,1.92 -3.08,3 -1.96,1.04 -4.48,1.04 -4.12,0 -6.52,-2.28 -2.36,-2.32 -2.36,-6.76 v -12.2 h 2.84 v 11.92 q 0,3.32 1.64,5.04 1.64,1.72 4.68,1.72 3.32,0 5.24,-2 1.92,-2.04 1.92,-5.64 v -11.04 z"
           style="font-style:normal;font-variant:normal;font-weight:normal;font-stretch:normal;font-family:Montserrat;-inkscape-font-specification:Montserrat;fill:#c8c8c8;fill-opacity:1;stroke:#c8c8c8;stroke-width:1.88976383;stroke-miterlimit:4;stroke-dasharray:none;stroke-opacity:1"
           id="path965" />
        <path
           d="m 214.67125,160.41515 -10.52,23.56 q -1.28,2.96 -2.96,4.2 -1.68,1.24 -4.04,1.24 -1.52,0 -2.84,-0.48 -1.32,-0.48 -2.28,-1.44 l 1.32,-2.12 q 1.6,1.6 3.84,1.6 1.44,0 2.44,-0.8 1.04,-0.8 1.92,-2.72 l 0.92,-2.04 -9.4,-21 h 2.96 l 7.92,17.88 7.92,-17.88 z"
           style="font-style:normal;font-variant:normal;font-weight:normal;font-stretch:normal;font-family:Montserrat;-inkscape-font-specification:Montserrat;fill:#c8c8c8;fill-opacity:1;stroke:#c8c8c8;stroke-width:1.88976383;stroke-miterlimit:4;stroke-dasharray:none;stroke-opacity:1"
           id="path967" />
        <path
           d="m 230.415,180.17515 q -0.8,0.72 -2,1.12 -1.16,0.36 -2.44,0.36 -2.96,0 -4.56,-1.6 -1.6,-1.6 -1.6,-4.52 v -12.72 h -3.76 v -2.4 h 3.76 v -4.6 h 2.84 v 4.6 h 6.4 v 2.4 h -6.4 v 12.56 q 0,1.88 0.92,2.88 0.96,0.96 2.72,0.96 0.88,0 1.68,-0.28 0.84,-0.28 1.44,-0.8 z"
           style="font-style:normal;font-variant:normal;font-weight:normal;font-stretch:normal;font-family:Montserrat;-inkscape-font-specification:Montserrat;fill:#c8c8c8;fill-opacity:1;stroke:#c8c8c8;stroke-width:1.88976383;stroke-miterlimit:4;stroke-dasharray:none;stroke-opacity:1"
           id="path969" />
        <path
           d="m 253.12375,171.81515 h -17.6 q 0.24,3.28 2.52,5.32 2.28,2 5.76,2 1.96,0 3.6,-0.68 1.64,-0.72 2.84,-2.08 l 1.6,1.84 q -1.4,1.68 -3.52,2.56 -2.08,0.88 -4.6,0.88 -3.24,0 -5.76,-1.36 -2.48,-1.4 -3.88,-3.84 -1.4,-2.44 -1.4,-5.52 0,-3.08 1.32,-5.52 1.36,-2.44 3.68,-3.8 2.36,-1.36 5.28,-1.36 2.92,0 5.24,1.36 2.32,1.36 3.64,3.8 1.32,2.4 1.32,5.52 z m -10.16,-9.12 q -3.04,0 -5.12,1.96 -2.04,1.92 -2.32,5.04 h 14.92 q -0.28,-3.12 -2.36,-5.04 -2.04,-1.96 -5.12,-1.96 z"
           style="font-style:normal;font-variant:normal;font-weight:normal;font-stretch:normal;font-family:Montserrat;-inkscape-font-specification:Montserrat;fill:#c8c8c8;fill-opacity:1;stroke:#c8c8c8;stroke-width:1.88976383;stroke-miterlimit:4;stroke-dasharray:none;stroke-opacity:1"
           id="path971" />
        <path
           d="m 269.66437,160.25515 q 3.96,0 6.28,2.32 2.36,2.28 2.36,6.68 v 12.2 h -2.83999 v -11.92 q 0,-3.28 -1.64001,-5 -1.64,-1.72 -4.67999,-1.72 -3.40001,0 -5.40001,2.04 -1.96,2 -1.96,5.56 v 11.04 h -2.84 v -21.04 h 2.72 v 3.88 q 1.16,-1.92 3.2,-2.96 2.08,-1.08 4.8,-1.08 z"
           style="font-style:normal;font-variant:normal;font-weight:normal;font-stretch:normal;font-family:Montserrat;-inkscape-font-specification:Montserrat;fill:#c8c8c8;fill-opacity:1;stroke:#c8c8c8;stroke-width:1.88976383;stroke-miterlimit:4;stroke-dasharray:none;stroke-opacity:1"
           id="path973" />
      </g>
      <g
         aria-label="SLuytertijd"
         transform="matrix(0.26458333,0,0,0.26458333,-8.1012463,257.20719)"
         style="font-style:normal;font-weight:normal;font-size:40px;line-height:1.25;font-family:sans-serif;letter-spacing:0px;word-spacing:0px;fill:#000000;fill-opacity:1;stroke:none"
         id="flowRoot834">
        <path
           d="m 130.4675,181.69515 q -3.12,0 -6,-1 -2.84,-1 -4.4,-2.64 l 1.16,-2.28 q 1.52,1.52 4.04,2.48 2.52,0.92 5.2,0.92 3.76,0 5.64,-1.36 1.88,-1.4 1.88,-3.6 0,-1.68 -1.04,-2.68 -1,-1 -2.48,-1.52 -1.48,-0.56 -4.12,-1.2 -3.16,-0.8 -5.04,-1.52 -1.88,-0.76 -3.24,-2.28 -1.32,-1.52 -1.32,-4.12 0,-2.12 1.12,-3.84 1.12,-1.76 3.44,-2.8 2.32,-1.04 5.76,-1.04 2.4,0 4.68,0.68 2.32,0.64 4,1.8 l -1,2.36 q -1.76,-1.16 -3.76,-1.72 -2,-0.6 -3.92,-0.6 -3.68,0 -5.56,1.44 -1.84,1.4 -1.84,3.64 0,1.68 1,2.72 1.04,1 2.56,1.56 1.56,0.52 4.16,1.16 3.08,0.76 4.96,1.52 1.92,0.72 3.24,2.24 1.32,1.48 1.32,4.04 0,2.12 -1.16,3.88 -1.12,1.72 -3.48,2.76 -2.36,1 -5.8,1 z"
           style="font-style:normal;font-variant:normal;font-weight:normal;font-stretch:normal;font-family:Montserrat;-inkscape-font-specification:Montserrat"
           id="path937" />
        <path
           d="m 147.35687,153.45515 h 2.96 v 25.44 h 15.68 v 2.56 h -18.64 z"
           style="font-style:normal;font-variant:normal;font-weight:normal;font-stretch:normal;font-family:Montserrat;-inkscape-font-specification:Montserrat"
           id="path939" />
        <path
           d="m 188.99813,160.41515 v 21.04 h -2.72001 v -3.84 q -1.12,1.92 -3.08,3 -1.96,1.04 -4.48,1.04 -4.12,0 -6.52,-2.28 -2.36,-2.32 -2.36,-6.76 v -12.2 h 2.84 v 11.92 q 0,3.32 1.64,5.04 1.64,1.72 4.68,1.72 3.32,0 5.24,-2 1.92,-2.04 1.92,-5.64 v -11.04 z"
           style="font-style:normal;font-variant:normal;font-weight:normal;font-stretch:normal;font-family:Montserrat;-inkscape-font-specification:Montserrat"
           id="path941" />
        <path
           d="m 214.67125,160.41515 -10.52,23.56 q -1.28,2.96 -2.96,4.2 -1.68,1.24 -4.04,1.24 -1.52,0 -2.84,-0.48 -1.32,-0.48 -2.28,-1.44 l 1.32,-2.12 q 1.6,1.6 3.84,1.6 1.44,0 2.44,-0.8 1.04,-0.8 1.92,-2.72 l 0.92,-2.04 -9.4,-21 h 2.96 l 7.92,17.88 7.92,-17.88 z"
           style="font-style:normal;font-variant:normal;font-weight:normal;font-stretch:normal;font-family:Montserrat;-inkscape-font-specification:Montserrat"
           id="path943" />
        <path
           d="m 230.415,180.17515 q -0.8,0.72 -2,1.12 -1.16,0.36 -2.44,0.36 -2.96,0 -4.56,-1.6 -1.6,-1.6 -1.6,-4.52 v -12.72 h -3.76 v -2.4 h 3.76 v -4.6 h 2.84 v 4.6 h 6.4 v 2.4 h -6.4 v 12.56 q 0,1.88 0.92,2.88 0.96,0.96 2.72,0.96 0.88,0 1.68,-0.28 0.84,-0.28 1.44,-0.8 z"
           style="font-style:normal;font-variant:normal;font-weight:normal;font-stretch:normal;font-family:Montserrat;-inkscape-font-specification:Montserrat"
           id="path945" />
        <path
           d="m 253.12375,171.81515 h -17.6 q 0.24,3.28 2.52,5.32 2.28,2 5.76,2 1.96,0 3.6,-0.68 1.64,-0.72 2.84,-2.08 l 1.6,1.84 q -1.4,1.68 -3.52,2.56 -2.08,0.88 -4.6,0.88 -3.24,0 -5.76,-1.36 -2.48,-1.4 -3.88,-3.84 -1.4,-2.44 -1.4,-5.52 0,-3.08 1.32,-5.52 1.36,-2.44 3.68,-3.8 2.36,-1.36 5.28,-1.36 2.92,0 5.24,1.36 2.32,1.36 3.64,3.8 1.32,2.4 1.32,5.52 z m -10.16,-9.12 q -3.04,0 -5.12,1.96 -2.04,1.92 -2.32,5.04 h 14.92 q -0.28,-3.12 -2.36,-5.04 -2.04,-1.96 -5.12,-1.96 z"
           style="font-style:normal;font-variant:normal;font-weight:normal;font-stretch:normal;font-family:Montserrat;-inkscape-font-specification:Montserrat"
           id="path947" />
        <path
           d="m 261.66437,164.53515 q 1,-2.12 2.96,-3.2 2,-1.08 4.92,-1.08 v 2.76 l -0.68,-0.04 q -3.32,0 -5.2,2.04 -1.88,2.04 -1.88,5.72 v 10.72 h -2.84 v -21.04 h 2.72 z"
           style="font-style:normal;font-variant:normal;font-weight:normal;font-stretch:normal;font-family:Montserrat;-inkscape-font-specification:Montserrat"
           id="path949" />
        <path
           d="m 286.665,180.17515 q -0.8,0.72 -2,1.12 -1.16,0.36 -2.44,0.36 -2.96,0 -4.56,-1.6 -1.6,-1.6 -1.6,-4.52 v -12.72 h -3.76 v -2.4 h 3.76 v -4.6 h 2.84 v 4.6 h 6.4 v 2.4 h -6.4 v 12.56 q 0,1.88 0.92,2.88 0.96,0.96 2.72,0.96 0.88,0 1.68,-0.28 0.84,-0.28 1.44,-0.8 z"
           style="font-style:normal;font-variant:normal;font-weight:normal;font-stretch:normal;font-family:Montserrat;-inkscape-font-specification:Montserrat"
           id="path951" />
        <path
           d="m 291.835,160.41515 h 2.84 v 21.04 h -2.84 z m 1.44,-4.6 q -0.88,0 -1.48,-0.6 -0.6,-0.6 -0.6,-1.44 0,-0.8 0.6,-1.4 0.6,-0.6 1.48,-0.6 0.88,0 1.48,0.6 0.6,0.56 0.6,1.36 0,0.88 -0.6,1.48 -0.6,0.6 -1.48,0.6 z"
           style="font-style:normal;font-variant:normal;font-weight:normal;font-stretch:normal;font-family:Montserrat;-inkscape-font-specification:Montserrat"
           id="path953" />
        <path
           d="m 299.49625,189.41515 q -1.32,0 -2.48,-0.36 -1.2,-0.32 -1.96,-1 l 1,-2.16 q 1.24,1.08 3.28,1.08 1.68,0 2.56,-1 0.92,-1 0.92,-2.96 v -22.6 h 2.84 v 22.6 q 0,2.96 -1.6,4.68 -1.6,1.72 -4.56,1.72 z m 4.76,-33.64 q -0.88,0 -1.48,-0.6 -0.6,-0.6 -0.6,-1.44 0,-0.8 0.6,-1.4 0.6,-0.6 1.48,-0.6 0.88,0 1.48,0.6 0.6,0.56 0.6,1.36 0,0.88 -0.6,1.48 -0.6,0.6 -1.48,0.6 z"
           style="font-style:normal;font-variant:normal;font-weight:normal;font-stretch:normal;font-family:Montserrat;-inkscape-font-specification:Montserrat"
           id="path956" />
        <path
           d="m 332.75375,151.77515 v 29.68 h -2.72 v -4.16 q -1.28,2.12 -3.4,3.24 -2.08,1.12 -4.72,1.12 -2.96,0 -5.36,-1.36 -2.4,-1.36 -3.76,-3.8 -1.36,-2.44 -1.36,-5.56 0,-3.12 1.36,-5.56 1.36,-2.44 3.76,-3.76 2.4,-1.36 5.36,-1.36 2.56,0 4.6,1.08 2.08,1.04 3.4,3.08 v -12.64 z m -10.6,27.36 q 2.2,0 3.96,-1 1.8,-1.04 2.8,-2.92 1.04,-1.88 1.04,-4.28 0,-2.4 -1.04,-4.28 -1,-1.88 -2.8,-2.88 -1.76,-1.04 -3.96,-1.04 -2.24,0 -4.04,1.04 -1.76,1 -2.8,2.88 -1,1.88 -1,4.28 0,2.4 1,4.28 1.04,1.88 2.8,2.92 1.8,1 4.04,1 z"
           style="font-style:normal;font-variant:normal;font-weight:normal;font-stretch:normal;font-family:Montserrat;-inkscape-font-specification:Montserrat"
           id="path958" />
      </g>
      <g
         transform="matrix(0.85823998,0,0,0.85823998,12.998151,245.29613)"
         id="g919">
        <circle
           style="opacity:1;fill:#000000;fill-opacity:1;fill-rule:nonzero;stroke:#0d0000;stroke-width:0.18000001;stroke-linecap:round;stroke-linejoin:miter;stroke-miterlimit:4;stroke-dasharray:none;stroke-dashoffset:0;stroke-opacity:1;paint-order:stroke fill markers"
           id="path910"
           cx="74.618217"
           cy="66.569199"
           r="2.4970052" />
        <path
           sodipodi:type="star"
           style="opacity:1;fill:#000000;fill-opacity:0;fill-rule:nonzero;stroke:#ffffff;stroke-width:0.065;stroke-linecap:round;stroke-linejoin:miter;stroke-miterlimit:4;stroke-dasharray:none;stroke-dashoffset:0;stroke-opacity:1;paint-order:stroke fill markers"
           id="path906"
           sodipodi:sides="6"
           sodipodi:cx="76.173973"
           sodipodi:cy="66.189987"
           sodipodi:r1="1.0848724"
           sodipodi:r2="0.57855141"
           sodipodi:arg1="0.9151007"
           sodipodi:arg2="0.35225675"
           inkscape:flatsided="false"
           inkscape:rounded="0"
           inkscape:randomized="0"
           d="m 76.835431,67.049883 -0.118432,-0.660286 -0.956988,0.803178 0.512608,-0.432708 -1.174067,-0.427188 0.631041,0.227578 -0.217078,-1.230366 0.118432,0.660286 0.956989,-0.803177 -0.512609,0.432708 1.174067,0.427187 -0.63104,-0.227577 z"
           inkscape:transform-center-x="-0.015661156"
           inkscape:transform-center-y="-0.23517946"
           transform="matrix(2.4411247,0.40150338,-0.40150338,2.4411247,-84.756446,-125.59292)" />
        <path
           sodipodi:type="star"
           style="opacity:1;fill:#ffffff;fill-opacity:1;fill-rule:nonzero;stroke:none;stroke-width:0.15385336;stroke-linecap:round;stroke-linejoin:miter;stroke-miterlimit:4;stroke-dasharray:none;stroke-dashoffset:0;stroke-opacity:1;paint-order:stroke fill markers"
           id="path914"
           sodipodi:sides="6"
           sodipodi:cx="74.618217"
           sodipodi:cy="66.569199"
           sodipodi:r1="1.3802574"
           sodipodi:r2="1.195338"
           sodipodi:arg1="0.52359878"
           sodipodi:arg2="1.0471976"
           inkscape:flatsided="true"
           inkscape:rounded="0"
           inkscape:randomized="0"
           d="m 75.813555,67.259327 -1.195338,0.690129 -1.195337,-0.690129 0,-1.380257 1.195337,-0.690129 1.195338,0.690129 z"
           inkscape:transform-center-x="2.9765796e-006" />
      </g>
      <circle
         r="2.2539427"
         cy="302.4285"
         cx="77.03849"
         id="path934"
         style="opacity:1;fill:none;fill-opacity:1;fill-rule:nonzero;stroke:#ffffff;stroke-width:0.177;stroke-linecap:round;stroke-linejoin:miter;stroke-miterlimit:4;stroke-dasharray:none;stroke-dashoffset:0;stroke-opacity:1;paint-order:stroke fill markers" />
      <circle
         r="0.32740518"
         cy="304.88107"
         cx="29.741137"
         id="path955"
         style="opacity:1;fill:#c8c8c8;fill-opacity:1;fill-rule:nonzero;stroke:#c8c8c8;stroke-width:0.5;stroke-linecap:round;stroke-linejoin:miter;stroke-miterlimit:4;stroke-dasharray:none;stroke-dashoffset:0;stroke-opacity:1;paint-order:stroke fill markers" />
    </g>
  </g>
</svg>
